<svg width="79" height="88" viewBox="0 0 79 88" fill="none" xmlns="http://www.w3.org/2000/svg">
<path fill-rule="evenodd" clip-rule="evenodd" d="M64.598 39.1728L76.9349 20.6674L54.8186 23.225V14.7998L48.4997 19.9151L38.1186 0.206055L29.242 20.6674L22.0203 16.3043L23.0735 24.5791L0.505859 23.225L14.3473 40.9783L6.37345 44.7395L14.3473 48.1999L1.85992 67.0063L24.4276 64.4486L23.5249 72.272L30.8969 67.0063L40.5258 87.0162L49.4024 67.0063L56.6241 71.2189L56.0223 62.9441L78.5899 64.4486L64.598 46.6954L72.7223 42.4828L64.598 39.1728ZM26.8348 44.2882C26.8348 46.6147 24.9488 48.5008 22.6222 48.5008C20.2956 48.5008 18.4096 46.6147 18.4096 44.2882C18.4096 41.9616 20.2956 40.0756 22.6222 40.0756C24.9488 40.0756 26.8348 41.9616 26.8348 44.2882ZM56.5058 29.0515C53.7698 27.2698 50.5034 26.2341 46.995 26.2341C37.3565 26.2342 29.543 34.0477 29.5429 43.6862C29.5429 53.3248 37.3565 61.1383 46.995 61.1384C50.5037 61.1384 53.7697 60.1019 56.5058 58.32C50.2942 56.3559 45.7909 50.5473 45.7909 43.6862C45.791 36.8251 50.2941 31.0155 56.5058 29.0515Z" fill="#A1A1A1"/>
</svg>
