<svg width="72" height="74" viewBox="0 0 72 74" fill="none" xmlns="http://www.w3.org/2000/svg">
<path d="M9.96885 27.6063L11.3229 33.6243C10.8716 33.6243 9.78831 33.5641 9.06614 33.3234C8.16343 33.0225 3.19855 28.9603 1.09224 25.9513C-1.01407 22.9423 0.339986 19.9333 1.69404 19.7828C3.0481 19.6324 3.349 20.6855 4.25171 22.3405C4.97388 23.6644 8.36404 26.4027 9.96885 27.6063Z" fill="#A1A1A1"/>
<path d="M34.7931 11.8088L31.6337 16.7737C31.4331 16.5731 31.0018 16.0214 30.8814 15.4196C30.731 14.6674 30.731 13.6142 30.5805 11.5079C30.4301 9.40158 29.3769 6.24211 29.5274 4.88806C29.6778 3.534 31.9346 -0.227276 33.74 2.48084C35.1843 4.64733 35.0439 9.60219 34.7931 11.8088Z" fill="#A1A1A1"/>
<path d="M28.9259 20.8359L25.1646 28.9602C24.8135 27.9071 24.0813 25.5299 23.961 24.4467C23.8105 23.0926 20.8015 15.4196 20.1997 14.0656C19.5979 12.7115 18.9961 6.99438 19.8988 3.2331C20.8015 -0.528171 24.1114 0.374534 24.8637 2.02949C25.6159 3.68445 25.1646 6.54302 25.1646 8.04753C25.1646 9.55204 25.1646 11.207 26.2177 12.862C27.0603 14.1859 28.3742 18.7295 28.9259 20.8359Z" fill="#A1A1A1"/>
<path d="M47.2805 26.252C45.5954 29.3814 39.7579 33.0725 37.0498 34.5268V31.5178C37.0498 30.3142 38.5543 28.2079 39.1561 26.7034C39.7579 25.1989 46.3778 19.3313 48.0327 17.3754C49.6877 15.4195 50.2895 7.14475 50.8913 5.48979C51.4931 3.83483 53.7499 4.58708 54.5021 5.48979C55.2544 6.3925 55.4048 10.3042 55.2544 11.5078C55.1039 12.7114 52.3958 13.6141 51.3426 17.3754C50.2895 21.1367 49.3868 22.3403 47.2805 26.252Z" fill="#A1A1A1"/>
<path d="M25.917 73.4936C19.8989 73.4936 11.9752 70.6851 8.76555 69.2809C9.41748 67.3251 11.0523 62.7815 12.3763 60.2539C13.7003 57.7263 14.0313 51.277 14.0313 48.3683C11.7244 47.2649 6.62909 44.607 4.70332 42.8016C2.29611 40.5448 -0.261559 37.0844 0.641146 34.3763C1.54385 31.6682 3.49976 32.7214 4.40242 33.0223C5.30508 33.3232 8.61505 36.7835 10.7214 38.288C12.4064 39.4916 14.3322 39.6922 15.0844 39.6421C14.3322 37.6361 12.7976 33.4435 12.6772 32.7214C12.5268 31.8186 12.2259 29.7123 12.0754 27.7565C11.925 25.8006 10.5709 22.3402 10.1196 21.4375C9.6682 20.5348 7.41144 18.4285 5.90693 17.3754C4.40242 16.3222 3.04841 13.3132 2.89796 12.7114C2.74751 12.1096 2.89796 10.906 3.49976 10.0033C4.10157 9.10056 5.75653 9.70236 6.35833 10.0033C6.96013 10.3042 17.0403 17.9772 18.6953 20.2339C20.0193 22.0393 23.259 29.9129 24.7133 33.6241C25.5659 32.5709 27.3914 30.0734 27.8728 28.5087C28.4746 26.5529 30.7314 22.0393 31.1827 20.9862C31.6341 19.933 37.0503 14.6672 37.3512 14.0654C37.5919 13.584 38.1536 11.5579 38.4044 10.6051C38.605 8.3483 39.0062 3.77459 39.0062 3.53387C39.0062 3.23297 39.9089 1.72846 40.8116 1.42755C41.7143 1.12665 43.0684 2.02936 43.5197 2.78161C43.9711 3.53387 45.1747 6.84379 45.3251 8.9501C45.4756 11.0564 44.4224 15.4195 44.272 16.6231C44.1215 17.8267 42.1657 19.4817 40.8116 20.9862C39.4575 22.4907 36.599 27.3051 35.0945 31.5177C33.59 35.7304 34.3422 40.8457 34.3422 41.4475C34.3422 41.9289 35.5458 44.0553 36.1476 45.0583H37.953C37.3512 43.6541 36.1476 40.6952 36.1476 40.0934C36.1476 39.3412 36.2981 38.8898 37.0503 37.8367C37.8026 36.7835 40.6611 35.279 43.0684 33.925C45.4756 32.5709 48.635 28.5087 49.6882 27.3051C50.7414 26.1015 51.7945 21.8889 52.0954 20.9862C52.3963 20.0835 56.1576 14.5168 56.6089 13.7645C57.0603 13.0123 61.4234 8.19784 62.4765 8.3483C63.5297 8.49875 64.7333 10.4546 64.7333 11.3573C64.7333 12.26 64.1315 14.5168 63.3792 15.7204C62.627 16.924 58.8657 21.2871 58.1135 22.6411C57.5117 23.7244 57.5618 28.7093 57.6621 31.0664C58.6651 30.3643 60.8216 28.8698 61.4234 28.5087C62.1756 28.0574 62.3261 25.4997 62.4765 24.8979C62.627 24.2961 63.5297 20.0835 65.0342 19.0303C66.5387 17.9772 68.7955 19.1808 69.0964 19.7826C69.3973 20.3844 69.3973 24.597 68.7955 28.5087C68.1937 32.4204 63.8306 36.3322 62.9279 37.2349C62.0252 38.1376 56.4585 39.7925 55.1044 40.8457C54.0212 41.6882 52.2459 44.0052 51.4936 45.0583H53.5999C54.6029 44.1556 57.0603 42.1697 58.8657 41.4475C61.1225 40.5448 63.3792 39.7925 65.9369 38.8898C68.4946 37.9871 68.7955 36.0313 70.3 36.7835C71.8045 37.5358 71.8045 38.8898 71.3531 39.7925C70.9018 40.6952 70.1495 42.1998 68.7955 43.7043C67.7122 44.9079 62.9279 46.7133 60.6711 47.4655C60.4204 49.7725 60.0693 55.1686 60.6711 58.298C61.2729 61.4274 63.8306 66.9239 65.0342 69.2809C64.1816 69.5317 61.965 70.2438 59.9189 71.0863C57.3612 72.1395 51.3432 72.5909 46.3783 73.4936C41.4134 74.3963 33.4395 73.4936 25.917 73.4936Z" fill="#A1A1A1"/>
</svg>
