<svg width="53" height="81" viewBox="0 0 53 81" fill="none" xmlns="http://www.w3.org/2000/svg">
<path d="M35.2718 60.1906C43.3317 60.455 42.7442 51.7654 41.4403 47.5527C40.337 52.5678 35.9525 55.7808 27.1475 45.7473C20.6778 38.375 22.3832 24.9851 25.4925 23.0292C8.64185 22.1265 16.9165 59.5886 35.2718 60.1906Z" fill="#A1A1A1"/>
<path d="M23.8367 79.7492C38.2173 82.1281 38.5307 71.1735 36.7754 66.2087C35.34 77.1916 20.745 72.8066 14.0578 63.1996C3.79924 48.4619 6.90759 38.7658 10.7236 35.7105C-8.64115 37.7932 1.89827 76.1202 23.8367 79.7492Z" fill="#A1A1A1"/>
<path d="M48.5114 20.9228L52.5736 0.311035L41.1393 9.63899C40.688 11.7955 40.3871 16.8305 42.7943 19.7192C45.2015 22.6079 47.6087 21.7252 48.5114 20.9228Z" fill="#A1A1A1"/>
<path d="M41.2895 37.7731C47.6686 38.0139 47.0568 31.5545 45.9535 28.2947C45.6525 31.4542 43.6064 35.8775 37.829 28.2947C32.0517 20.712 35.2213 14.9046 37.5282 12.9487C23.9876 14.6037 33.3156 37.4722 41.2895 37.7731Z" fill="#A1A1A1"/>
</svg>
