<svg width="46" height="81" viewBox="0 0 46 81" fill="none" xmlns="http://www.w3.org/2000/svg">
<path d="M31.9421 46.7409C31.3403 46.1391 22.7646 35.6577 18.5519 30.4922L18.1006 41.4751C18.4015 42.0268 19.244 43.3407 20.2069 44.1832C21.4105 45.2364 27.579 47.6436 29.0835 49.449C30.588 51.2544 31.3403 53.2103 31.3403 55.0157C31.3403 56.8211 30.2871 58.0247 28.4817 58.3256C27.0374 58.5663 26.2751 56.4199 26.0745 55.3166C25.924 55.116 25.563 54.9254 25.3222 55.7679C25.0213 56.8211 25.0213 59.9806 27.579 60.7328C30.1367 61.4851 32.8448 60.4319 34.1988 55.7679C35.5529 51.104 32.6943 47.4931 31.9421 46.7409Z" fill="#A1A1A1"/>
<path fill-rule="evenodd" clip-rule="evenodd" d="M37.5089 80.4421C41.4206 73.3709 48.1569 60.4322 43.3764 47.3429C40.2302 38.7281 37.7553 33.321 36.0261 29.5431C34.2824 25.7335 33.2969 23.5805 33.1458 21.4654C32.8449 17.2527 32.9954 10.332 34.3494 7.32297C35.4327 4.91575 35.9041 3.21064 36.0043 2.65899L26.6764 0.703125C26.2752 0.753275 25.2621 0.883666 24.4196 1.00403C23.5771 1.12439 22.865 1.65598 22.6142 1.90673C19.555 5.3671 12.4136 14.4243 8.32137 22.9699C4.22911 31.5155 1.60123 42.7792 0.798828 47.3429C4.6604 53.5616 14.3093 67.383 22.0124 72.9196C29.7155 78.4562 35.553 80.2415 37.5089 80.4421ZM29.0836 14.3942L29.8359 10.7834C29.739 10.7834 29.6531 10.7811 29.5741 10.779C28.7853 10.7576 28.6841 10.7549 25.1832 13.2711C21.4238 15.9733 20.7835 17.2076 18.7491 21.129C18.1783 22.2294 17.4977 23.5414 16.6075 25.1568C13.3578 31.0545 13.9495 41.4556 14.6516 45.919C14.2003 46.5208 13.3277 47.9952 13.448 49.0785C13.5775 50.2441 17.386 54.5313 18.0598 55.2222C18.0038 55.6234 22.3976 65.5108 26.3868 68.7875C29.7569 71.5558 35.2132 72.6491 37.5201 72.8497C37.6204 73.1005 38.4072 70.9123 39.0134 68.7875C40.0666 65.0962 40.6155 62.7495 40.0666 55.247C39.6152 49.0785 36.9572 42.4283 35.1017 37.8646C34.8939 37.7459 34.5456 37.5551 34.1114 37.3173C33.0782 36.7515 31.5584 35.9192 30.2873 35.1565C28.4818 34.0732 23.0656 27.6339 21.4107 24.0231C21.7617 22.9198 23.186 19.991 24.2692 18.306C25.3525 16.6209 27.8299 15.0462 29.0836 14.3942Z" fill="#A1A1A1"/>
</svg>
