<svg width="26" height="84" viewBox="0 0 26 84" fill="none" xmlns="http://www.w3.org/2000/svg">
<path d="M25.1913 43.3423L17.9696 40.6342C17.418 42.9411 16.6757 48.8789 18.1201 54.1748C19.5644 59.4707 23.2354 63.7034 24.8904 65.1577C24.8904 65.0073 24.7399 64.4656 24.1381 63.5028C23.3859 62.2991 22.9345 59.4406 22.784 56.1307C22.6336 52.8207 23.8372 48.7586 24.5895 46.9532C25.1913 45.5088 25.2414 43.9441 25.1913 43.3423Z" fill="white"/>
<path d="M8.94268 30.5537C9.30376 32.2388 8.79223 35.2678 8.49133 36.5717C9.79523 36.8225 13.1553 37.4143 16.1643 37.7753C19.1733 38.1364 23.737 40.4333 25.6427 41.5366C25.6929 40.333 25.6728 37.324 25.1914 34.9168C24.7099 32.5096 23.0851 29.1996 22.3328 27.8456C21.7812 27.4945 19.8955 26.5216 16.7661 25.4384C13.6367 24.3551 8.94268 24.4855 6.98682 24.6861C7.48832 25.9399 8.5816 28.8687 8.94268 30.5537Z" fill="white"/>
<path d="M10.5975 72.8305L2.92451 23.9339C2.72391 23.7333 2.23243 23.0914 1.87135 22.1285C1.51027 21.1656 0.617594 20.0222 0.216392 19.5709C0.266542 19.1195 0.336753 17.4946 0.216392 14.606C0.0960312 11.7173 0.768045 3.87383 1.1191 0.313148C2.72391 6.78254 5.93353 19.7815 5.93353 20.0222C5.93353 20.2629 5.03082 22.7303 4.57947 23.9339L12.102 72.0782L13.4561 74.7864C13.5764 75.0271 13.8071 81.005 13.9074 83.9639C12.9044 81.9579 10.8382 77.675 10.5975 76.5918C10.3568 75.5085 10.4972 73.6329 10.5975 72.8305Z" fill="white"/>
</svg>
