<svg width="83" height="79" viewBox="0 0 83 79" fill="none" xmlns="http://www.w3.org/2000/svg">
<path fill-rule="evenodd" clip-rule="evenodd" d="M31.7102 1.60174L38.7814 9.57564C38.982 11.0802 38.8417 15.0822 36.6752 19.0541C34.5087 23.026 27.949 29.9367 24.94 32.8955C26.3442 36.0049 29.1827 42.374 29.3031 42.9758C29.4234 43.5776 29.2529 45.6337 29.1526 46.5866L32.4625 48.6929C32.5628 48.743 32.7935 48.8132 32.9139 48.6929C33.0643 48.5424 34.8697 47.7902 36.6752 47.7902C37.9253 47.7902 39.1034 48.5116 39.9095 49.0053C40.2676 49.2245 40.5522 49.3989 40.7373 49.4451C41.1385 49.5454 43.0108 53.056 44.3482 55.5635L44.3482 55.5636C45.0169 56.8173 45.5518 57.8203 45.7022 58.0208C46.1536 58.6227 45.8527 61.7821 45.7022 62.3839C45.5819 62.8654 44.4485 64.5905 43.8968 65.3929C43.4956 65.3929 42.5427 65.3328 41.9409 65.092C41.3391 64.8513 40.8878 63.7881 40.7373 63.2866C41.2388 62.8353 42.2719 61.8423 42.3923 61.4812C42.5127 61.1201 41.9409 59.3248 41.64 58.4722C40.5367 56.1653 38.2398 51.4913 37.8788 51.2506C37.5177 51.0098 36.7253 51.3509 36.3743 51.5515C36.5247 51.5515 36.9761 51.6718 37.5779 52.1533C38.3301 52.7551 38.4806 54.1091 38.3301 54.7109C38.1797 55.3127 36.5247 55.3127 36.3743 55.3127C36.3279 55.3127 36.0672 55.1413 35.72 54.9129C34.9403 54.4001 33.7239 53.6 33.5157 53.8082C33.2148 54.1091 33.8166 56.2154 34.2679 57.1181C34.629 57.8403 34.8196 60.8293 34.8697 62.2335C34.7193 62.4842 34.2379 63.0459 33.5157 63.2866C32.7935 63.5274 31.9109 62.9857 31.5598 62.6848C31.61 61.8824 31.6802 60.067 31.5598 59.2245C31.4766 58.6421 31.0255 57.8298 30.5878 57.0418C30.234 56.4047 29.8889 55.7836 29.7544 55.3127C29.5137 54.4702 29.8547 52.4542 30.0553 51.5515L27.0463 49.8965C26.6952 50.0469 25.4515 50.408 23.285 50.6488C20.8431 50.9201 18.4011 48.8671 17.3931 48.0197C17.2833 47.9274 17.1905 47.8493 17.1165 47.7902C16.5147 47.3087 14.5589 42.374 13.6562 39.9667H12.603C12.1517 39.9667 9.29309 39.9667 8.23993 39.5154C7.18677 39.064 1.77049 33.046 1.31914 32.2937C0.867785 31.5415 0.11553 28.382 1.31914 25.5234C2.52275 22.6649 7.63808 14.5405 12.1516 10.3279C16.6651 6.11527 19.9751 3.5576 24.7895 1.60174C28.641 0.0370494 31.0081 0.949785 31.7102 1.60174ZM25.8426 44.4803L24.639 43.8785L22.984 43.4272L21.3291 43.8785V45.6839L23.1345 47.3389L22.5327 47.4893L20.2759 46.1353L17.2669 39.365V38.0109L20.8777 35.7542H22.5327C23.636 38.1614 25.8426 43.036 25.8426 43.2767V44.4803ZM2.07139 31.3911C2.42244 32.1434 3.99716 33.4673 7.48762 32.7452C11.8507 31.8424 18.621 26.8776 19.975 25.2226C20.4264 24.671 21.5297 23.4339 22.8169 21.9907C25.3913 19.1043 28.7012 15.3931 29.0021 14.691C29.1411 14.3668 29.4798 13.8 29.882 13.1268C30.7861 11.6139 32.0111 9.56379 32.0111 8.52255C32.0111 8.04619 32.0564 7.38883 32.1039 6.69852C32.2064 5.20861 32.3196 3.56521 32.0111 3.25677C31.65 2.89569 31.2589 2.40422 31.1084 2.20362C31.1586 3.70812 31.1084 6.95786 30.5066 7.92075C29.9048 8.88364 29.4535 9.52556 29.303 9.72616C26.9459 11.0301 21.6902 14.2698 19.5237 16.7974C18.9714 17.4417 18.3503 18.1424 17.6973 18.8789C15.1486 21.754 12.115 25.1761 10.7975 27.9307C9.58042 30.4756 9.50254 30.4979 9.24729 30.5709C9.15547 30.5972 9.0407 30.6301 8.84168 30.7893C8.23987 31.2707 4.0774 31.3911 2.07139 31.3911Z" fill="white"/>
<path fill-rule="evenodd" clip-rule="evenodd" d="M76.9961 44.6307C77.3572 44.2697 80.958 38.8635 82.7132 36.2055C82.8637 35.6538 83.0743 34.3399 82.7132 33.4974C82.262 32.4442 80.9078 29.7361 80.0051 28.6829L79.9241 28.5882C78.8339 27.3097 73.8686 21.4874 64.0573 16.9478C55.9931 13.2166 49.3632 12.9859 47.0563 13.337L44.7995 14.5406L39.5337 22.5145C39.0823 22.9658 38.6611 24.7411 40.5868 28.2316C42.5126 31.7221 48.9118 36.4061 51.8707 38.3118C51.6199 38.7632 51.0282 39.8464 50.6671 40.5686C50.2158 41.4713 48.4104 48.392 48.5608 49.7461C48.7113 51.1001 49.9149 52.6047 50.8176 53.5074C51.5397 54.2295 53.2248 55.1122 53.977 55.4632L54.5789 59.9767C54.1777 60.1272 53.2249 60.5184 52.623 60.8795C51.8707 61.3308 50.5167 63.2867 50.3662 64.1894C50.2158 65.0921 49.7644 74.7209 49.9149 75.1723C50.0653 75.6236 50.8176 76.8273 51.5698 77.4291C52.3221 78.0309 53.9771 78.1813 54.5789 78.0309C55.1808 77.8804 55.9329 75.7741 55.4816 75.7741C55.0302 75.7741 53.6762 74.42 53.3753 73.9687C53.166 73.6547 53.3935 70.428 53.5514 68.1894C53.6205 67.2101 53.6762 66.4199 53.6762 66.1452C53.6762 65.4231 54.278 64.3398 54.5789 63.8885L55.1807 64.1894C55.281 65.1924 55.8728 67.1683 57.4375 67.0479C59.0022 66.9276 58.9922 65.1924 58.7916 64.3398C58.942 64.39 59.3031 64.5204 59.5438 64.6407C59.8447 64.7912 59.8447 66.1452 59.8447 66.2957C59.8447 66.3153 59.8345 66.4011 59.8181 66.5392C59.7085 67.4626 59.3212 70.7237 59.8447 72.1633C60.4465 73.8182 61.1988 74.42 61.951 74.42C62.7033 74.42 63.9069 74.42 64.0573 74.1191C64.2078 73.8182 64.0573 72.9155 63.606 72.1633C63.2237 71.5262 63.2731 68.0836 63.2972 66.4046C63.3016 66.101 63.3051 65.8551 63.3051 65.6939C63.3051 64.6407 63.3051 64.0389 61.951 62.0831C60.8678 60.5184 58.9922 60.0269 58.1897 59.9767L57.5879 55.0119C57.7885 55.0119 58.28 54.9216 58.6411 54.5605C58.7708 54.4308 58.9378 54.2886 59.1278 54.1269L59.1279 54.1269C59.599 53.7259 60.2114 53.2046 60.7474 52.4542C61.3492 51.6117 62.7033 46.4863 63.3051 44.0289C64.5588 44.38 67.4575 45.1724 69.0222 45.5335C70.9781 45.9848 76.5448 45.0821 76.9961 44.6307ZM57.8887 50.7993L60.1084 42.9563L54.7293 40.1173L52.1716 48.2416C52.2217 48.9939 52.3521 50.5285 52.4725 50.6488C52.5929 50.7692 53.0241 50.7993 53.2247 50.7993V48.693C53.2247 47.6398 55.7824 47.7903 56.0833 48.2416C56.324 48.6027 56.7854 50.1975 56.986 50.9497L57.8887 50.7993ZM45.8576 15.0298C45.222 15.5638 44.3511 17.4277 45.9527 20.612C47.9548 24.5923 54.5039 29.8455 56.4531 30.7246C57.1029 31.0177 58.5835 31.7629 60.3108 32.6323C63.7656 34.3712 68.2074 36.6068 68.9635 36.7156C69.3127 36.7658 69.9479 36.9462 70.7023 37.1603C72.3977 37.6416 74.6952 38.2938 75.7009 38.0241C76.161 37.9007 76.8076 37.7741 77.4867 37.6412C78.9523 37.3544 80.5689 37.0379 80.7869 36.6601C81.0422 36.2178 81.4156 35.7127 81.5703 35.5154C80.1302 35.9536 76.9783 36.7469 75.8924 36.4151C74.8065 36.0832 74.0696 35.8135 73.8369 35.7202C71.9669 33.7813 67.4764 29.5441 64.4739 28.1063C63.7085 27.7398 62.8709 27.3213 61.9903 26.8814C58.5532 25.1644 54.4621 23.1208 51.4602 22.5618C48.6869 22.0455 48.6452 21.976 48.5085 21.7484C48.4594 21.6665 48.3979 21.5642 48.1926 21.4132C47.5717 20.9566 46.3772 16.9674 45.8576 15.0298Z" fill="white"/>
</svg>
