<svg width="61" height="73" viewBox="0 0 61 73" fill="none" xmlns="http://www.w3.org/2000/svg">
<path d="M22.966 72.1416H25.0723C25.4735 68.3301 26.2157 59.6541 25.975 55.4415C25.6741 50.1757 23.8687 47.7685 22.6651 45.8126C21.4615 43.8568 18.1516 40.3964 14.9921 36.4847C11.8326 32.573 10.0272 29.5639 9.1245 24.1477C8.40234 19.8147 10.1275 14.9201 11.0804 13.0143C10.9299 15.4216 10.8096 21.0183 11.5317 24.1477C12.4344 28.0594 16.0452 32.7234 17.0984 33.927C18.1516 35.1306 24.7714 41.1487 25.5237 42.5027C26.1255 43.586 27.7804 44.9601 28.5327 45.5117C27.2789 42.6532 24.5307 36.6953 23.5678 35.7324C22.3642 34.5288 19.2047 28.0594 16.1957 21.7405C13.7885 16.6853 13.5879 5.3915 13.7885 0.376465C11.5819 4.08759 7.04826 12.6232 6.56681 17.0765C5.96501 22.6432 5.51366 28.0594 6.56681 30.7676C7.61997 33.4757 15.8948 47.0163 19.2047 51.9811C21.8526 55.953 22.8155 67.0764 22.966 72.1416Z" fill="white"/>
<path d="M20.4082 63.7163C20.358 65.6721 20.2878 69.6441 20.4082 69.8848C18.2517 69.8848 13.367 68.8015 11.0802 64.4686C8.22162 59.0524 8.22162 58.4505 7.46937 50.6271C6.71711 42.8036 0.699035 39.1928 0.247682 38.4405C-0.203671 37.6883 3.40715 39.945 6.41617 41.9009C9.42519 43.8568 12.5847 48.6712 13.3369 50.6271C14.0892 52.5829 13.9387 54.6892 15.2928 57.6982C16.376 60.1055 19.1544 62.7133 20.4082 63.7163Z" fill="white"/>
<path d="M39.0641 30.1657L31.0902 40.9982C30.689 39.1928 29.8866 35.1607 29.8866 33.4756C29.8866 31.3693 30.3379 29.7143 31.0902 26.254C31.8425 22.7936 32.7452 17.8287 32.7452 12.5629C32.7452 8.35031 30.2376 3.18483 28.9839 1.12866C29.686 1.37941 31.4212 2.21191 32.7452 3.53588C34.4001 5.19084 36.0551 7.7485 37.8605 13.1647C39.3048 17.4977 39.2647 26.3041 39.0641 30.1657Z" fill="white"/>
<path d="M37.1083 72.2919C37.8304 72.1716 38.5125 71.8406 38.7632 71.6901C38.1113 69.1826 37.0782 63.1445 38.1614 59.0523C39.5155 53.9369 44.029 49.1225 46.2858 46.7153C48.5425 44.3081 52.1534 37.9891 53.0561 36.3342C53.9587 34.6792 55.7642 28.3603 54.711 21.7404C53.8685 16.4446 51.6519 11.911 50.6489 10.3062L50.1975 17.5278C50.047 19.935 48.3921 24.8999 46.2858 27.608C44.1794 30.3161 38.4623 34.6792 32.5947 45.3612C27.9007 53.9068 27.8305 62.964 28.3821 66.4244L28.8335 66.5748C28.8836 65.8226 29.1344 63.5056 29.7362 60.2559C30.4884 56.1937 34.4001 47.4675 42.374 38.8918C50.3479 30.3161 49.8966 27.7585 50.6489 25.6521C51.2507 23.9671 51.4011 21.2389 51.4011 20.0855C51.4513 19.7845 51.6719 19.4235 52.1534 20.3864C52.7552 21.59 52.4543 26.5548 52.1534 28.6612C51.8525 30.7675 49.2948 36.4846 47.7903 38.8918C46.2858 41.299 41.4713 46.5648 38.4623 49.8747C35.4533 53.1847 34.8515 54.0874 33.6479 58.6009C32.685 62.2117 34.0491 69.4334 34.8515 72.5928C35.3029 72.5427 36.3861 72.4123 37.1083 72.2919Z" fill="white"/>
<path d="M47.3389 69.8849C46.8875 70.4867 45.022 71.4797 41.1704 70.6371V68.6813C41.1704 67.4777 42.0731 63.265 42.5245 61.0083C42.9758 58.7515 45.6839 56.0434 46.7371 54.0875C47.7903 52.1317 52.1533 49.574 53.8083 47.6181C55.4632 45.6623 55.7642 44.1578 56.8173 41.6001C57.6598 39.554 57.369 34.228 57.1182 31.8208C58.0711 33.3253 60.037 36.6051 60.2777 37.6884C60.5786 39.0424 60.729 46.4145 59.5254 48.22C58.3218 50.0254 51.702 57.9993 50.047 60.4065C48.723 62.3322 47.69 67.5278 47.3389 69.8849Z" fill="white"/>
</svg>
