<svg width="46" height="81" viewBox="0 0 46 81" fill="none" xmlns="http://www.w3.org/2000/svg">
<path d="M31.9418 46.7409C31.34 46.1391 22.7643 35.6577 18.5517 30.4922L18.1003 41.4751C18.4012 42.0268 19.2438 43.3407 20.2067 44.1832C21.4103 45.2364 27.5788 47.6436 29.0833 49.449C30.5878 51.2544 31.34 53.2103 31.34 55.0157C31.34 56.8211 30.2869 58.0247 28.4815 58.3256C27.0371 58.5663 26.2748 56.4199 26.0742 55.3166C25.9238 55.116 25.5627 54.9254 25.322 55.7679C25.0211 56.8211 25.0211 59.9806 27.5788 60.7328C30.1364 61.4851 32.8445 60.4319 34.1986 55.7679C35.5527 51.104 32.6941 47.4931 31.9418 46.7409Z" fill="white"/>
<path fill-rule="evenodd" clip-rule="evenodd" d="M37.5087 80.4421C41.4204 73.3709 48.1566 60.4322 43.3762 47.3429C40.2299 38.7281 37.755 33.321 36.0258 29.5431C34.2821 25.7335 33.2967 23.5805 33.1456 21.4654C32.8447 17.2527 32.9951 10.332 34.3492 7.32297C35.4324 4.91575 35.9038 3.21064 36.0041 2.65899L26.6761 0.703125C26.2749 0.753275 25.2619 0.883666 24.4194 1.00403C23.5769 1.12439 22.8647 1.65598 22.614 1.90673C19.5548 5.3671 12.4134 14.4243 8.32113 22.9699C4.22887 31.5155 1.60099 42.7792 0.798584 47.3429C4.66016 53.5616 14.3091 67.383 22.0122 72.9196C29.7153 78.4562 35.5528 80.2415 37.5087 80.4421ZM29.0834 14.3942L29.8357 10.7834C29.7388 10.7834 29.6529 10.7811 29.5739 10.779C28.7851 10.7576 28.6839 10.7549 25.183 13.2711C21.4235 15.9733 20.7832 17.2076 18.7489 21.129C18.178 22.2294 17.4974 23.5414 16.6073 25.1568C13.3575 31.0545 13.9493 41.4556 14.6514 45.919C14.2 46.5208 13.3274 47.9952 13.4478 49.0785C13.5773 50.2441 17.3858 54.5313 18.0595 55.2222C18.0035 55.6234 22.3974 65.5108 26.3865 68.7875C29.7566 71.5558 35.213 72.6491 37.5199 72.8497C37.6202 73.1005 38.407 70.9123 39.0132 68.7875C40.0663 65.0962 40.6153 62.7495 40.0663 55.247C39.615 49.0785 36.957 42.4283 35.1014 37.8646C34.8937 37.7459 34.5454 37.5551 34.1111 37.3173C33.0779 36.7515 31.5582 35.9192 30.287 35.1565C28.4816 34.0732 23.0654 27.6339 21.4104 24.0231C21.7615 22.9198 23.1857 19.991 24.269 18.306C25.3522 16.6209 27.8296 15.0462 29.0834 14.3942Z" fill="white"/>
</svg>
