<svg width="53" height="81" viewBox="0 0 53 81" fill="none" xmlns="http://www.w3.org/2000/svg">
<path d="M35.2721 60.1906C43.3319 60.455 42.7445 51.7654 41.4405 47.5527C40.3372 52.5678 35.9528 55.7808 27.1477 45.7473C20.678 38.375 22.3834 24.9851 25.4928 23.0292C8.64209 22.1265 16.9168 59.5886 35.2721 60.1906Z" fill="white"/>
<path d="M23.8369 79.7492C38.2176 82.1281 38.5309 71.1735 36.7757 66.2087C35.3403 77.1916 20.7453 72.8066 14.0581 63.1996C3.79948 48.4619 6.90783 38.7658 10.7238 35.7105C-8.64091 37.7932 1.89851 76.1202 23.8369 79.7492Z" fill="white"/>
<path d="M48.5114 20.9228L52.5736 0.311035L41.1393 9.63899C40.688 11.7955 40.3871 16.8305 42.7943 19.7192C45.2015 22.6079 47.6087 21.7252 48.5114 20.9228Z" fill="white"/>
<path d="M41.29 37.7731C47.6691 38.0139 47.0573 31.5545 45.9539 28.2947C45.653 31.4542 43.6069 35.8775 37.8295 28.2947C32.0522 20.712 35.2218 14.9046 37.5287 12.9487C23.9881 14.6037 33.3161 37.4722 41.29 37.7731Z" fill="white"/>
</svg>
