<svg width="70" height="80" viewBox="0 0 70 80" fill="none" xmlns="http://www.w3.org/2000/svg">
<path d="M50.0927 62.6331C50.213 63.7164 49.541 65.8929 49.1899 66.8457C48.8389 66.5448 48.1367 65.7926 48.1367 65.1908C48.1367 64.4385 47.0835 64.2881 46.7826 64.4385C46.4817 64.589 46.3313 65.4917 46.0304 65.943C45.7295 66.3944 44.3754 67.1467 43.4727 67.2971C42.7506 67.4175 41.9682 67.0463 41.6673 66.8457L39.2601 66.5448L37.4547 67.598C37.0535 67.6983 36.1307 67.8387 35.6493 67.598C35.0475 67.2971 34.2952 66.8457 33.3925 66.5448C32.4898 66.2439 23.9141 65.1908 22.7105 64.8899C21.5069 64.589 18.7988 62.1818 18.197 61.58C17.5953 60.9782 17.4447 59.0223 17.2943 57.6682C17.1438 56.3142 18.4979 55.5619 18.7988 55.8628C19.0997 56.1637 21.9582 57.0664 23.9141 57.5178C25.87 57.9691 33.8439 58.4205 36.2511 57.9691C38.1768 57.6081 39.561 56.6151 40.0123 56.1637C38.3574 56.0634 34.5058 55.8628 32.3394 55.8628C29.6312 55.8628 24.8168 55.261 22.7105 54.8097C20.6042 54.3583 18.197 51.9511 17.4447 50.898C16.6924 49.8448 17.4447 46.3844 17.896 44.8799C18.3474 43.3754 20.6042 43.9772 21.6573 44.1277C22.7105 44.2781 33.5429 45.1808 36.2511 45.0304C38.9592 44.8799 43.1718 45.1808 43.1718 44.4286C43.1718 43.6763 42.57 43.3754 41.6673 43.225C40.7646 43.0745 23.1618 42.4727 21.6573 42.3222C20.1528 42.1718 18.4979 39.915 18.197 39.4637C17.8961 39.0123 17.4448 36.3042 17.7457 34.6493C18.0466 32.9943 19.4006 31.3393 21.3565 30.7375C23.3124 30.1357 25.7196 29.9853 31.888 29.9853C36.8228 29.9853 42.0686 30.888 44.0746 31.3393C44.4257 31.239 45.0074 30.9181 44.5259 30.4366C43.9241 29.8348 43.3223 29.233 41.216 28.6312C39.1097 28.0294 26.4718 27.7285 25.2682 27.879C24.0646 28.0294 21.3565 27.879 20.9051 27.2772C20.4537 26.6753 20.1529 25.3213 20.0025 24.569C19.852 23.8168 20.7547 18.8519 21.3565 17.9492C21.9583 17.0465 23.9142 16.2942 24.9673 15.8429C26.0205 15.3915 35.4989 16.2942 36.4016 16.2942C37.3043 16.2942 38.0566 15.6924 38.5079 15.2411C38.869 14.88 38.6584 14.0876 38.5079 13.7366L38.8088 14.0375C39.1097 13.9873 39.8319 13.9472 40.3133 14.1879C40.7948 14.4286 43.0215 15.6924 44.0746 16.2942H45.7296C45.9302 15.7927 46.3916 14.8198 46.6323 14.9402C46.9332 15.0906 49.3404 17.4978 50.2431 18.2501C51.1458 19.0023 51.5972 18.8519 52.3494 19.3033C53.1017 19.7546 54.9071 22.9141 55.208 23.5159C55.5089 24.1177 57.1638 26.224 56.4116 27.2772C55.6593 28.3303 55.6593 30.4366 55.6593 31.3393C55.6593 32.242 56.7125 33.7465 57.4647 35.2511C58.217 36.7556 59.7215 41.8709 59.4206 42.4727C59.1197 43.0745 56.7125 43.6763 56.4116 45.0304C56.1709 46.1136 56.5119 48.2901 56.7125 49.243C56.4116 49.2931 55.6894 49.6041 55.208 50.4466C54.6062 51.4998 54.3053 52.7034 53.7035 54.8097C53.222 56.4947 50.7948 58.4205 49.6413 59.1727C49.7416 59.8749 49.9723 61.5499 50.0927 62.6331Z" fill="white"/>
<path d="M26.9229 10.5771C29.6912 11.1789 31.286 13.0344 31.7373 13.887L31.8878 14.3383C29.4805 14.238 24.305 14.0976 22.8607 14.3383C21.0553 14.6392 20.4535 15.5419 19.2499 16.5951C18.0463 17.6483 17.7454 19.0023 17.5949 20.0555C17.4445 21.1086 17.1436 22.1618 15.6391 24.2681C14.1345 26.3744 10.8246 26.0735 9.32012 25.9231C7.81561 25.7726 7.51471 25.0203 7.06335 24.2681C6.612 23.5158 6.76245 22.6131 6.9129 22.1618C7.06335 21.7104 9.01922 18.7014 9.32012 17.7987C9.62102 16.896 10.3733 14.6392 10.8246 14.1879C11.1857 13.8268 13.7835 11.6302 15.0373 10.5771V9.223H18.7985V7.86895C19.0493 7.8188 19.7614 7.86895 20.6039 8.47075C21.4465 9.07256 22.0583 9.9251 22.2589 10.2761C22.6601 10.1257 24.1546 9.97525 26.9229 10.5771Z" fill="white"/>
<path fill-rule="evenodd" clip-rule="evenodd" d="M24.5479 3.9572L35.0473 11.1788L42.737 10.1257L59.891 18.4005L59.0037 21.1086L64.9189 40.2159L62.1092 49.2429L57.0813 55.8628L55.3068 65.7925L47.9128 71.8106L37.4134 73.4655L19.9636 69.1024C16.661 65.291 10.0557 57.4876 10.0557 56.7655C10.0557 56.0433 8.9713 50.6471 8.42908 48.0393L11.9782 46.0835L14.0485 32.3924L4.58422 29.9852L0.443604 41.269L5.76725 49.2429L6.50665 52.5528L4.58422 58.7213L8.42908 62.0313L10.6473 74.5187L23.3649 76.1736L25.1394 75.1205H34.4558L39.6316 78.4304L47.9128 79.634L51.0183 73.4655L59.0037 65.7925H63.8837L68.9116 55.8628L66.8413 49.2429L69.651 40.2159V37.6582L65.3625 29.3834L64.9189 24.2681L67.5807 15.9933L66.8413 14.6392L60.9262 13.7365L59.891 10.7275L45.9904 7.26712L34.6037 0.496826L24.5479 3.9572ZM30.6109 4.8599L34.16 7.26711L32.977 3.95719L30.6109 4.8599ZM61.5177 19.0023L63.2922 23.5158L65.0668 17.6482L64.771 16.5951L61.5177 19.0023ZM60.4825 58.4204L62.5528 63.3853L58.5601 61.8808L59.2995 59.4736L60.4825 58.4204ZM19.0763 73.0142L15.2315 68.6511L14.3442 71.961L19.0763 73.0142ZM9.46429 44.278L6.35882 44.7294C5.37296 43.4756 3.48997 40.9681 3.84488 40.9681H9.76002L9.46429 44.278Z" fill="white"/>
</svg>
