<svg width="78" height="65" viewBox="0 0 78 65" fill="none" xmlns="http://www.w3.org/2000/svg">
<path d="M52.4919 55.607C51.0678 52.7578 48.0642 47.3597 47.0766 48.1366C45.803 49.1385 50.3057 53.4759 52.4919 55.607Z" fill="#D9D9D9" stroke="black"/>
<path d="M60.5841 47.0324C57.8664 45.3712 52.458 42.386 52.0324 43.5683C51.4835 45.0929 57.6007 46.3841 60.5841 47.0324Z" fill="#D9D9D9" stroke="black"/>
<path d="M40.1881 59.8499C41.2237 56.8377 42.9717 50.9126 41.7253 50.7521C40.1182 50.5451 40.1773 56.7969 40.1881 59.8499Z" fill="#D9D9D9" stroke="black"/>
<path d="M23.2967 5.24261C24.7207 8.0918 27.7244 13.4899 28.712 12.713C29.9856 11.7111 25.4829 7.37368 23.2967 5.24261Z" fill="#D9D9D9" stroke="black"/>
<path d="M15.2044 13.8172C17.9222 15.4784 23.3305 18.4636 23.7562 17.2813C24.3051 15.7567 18.1878 14.4655 15.2044 13.8172Z" fill="#D9D9D9" stroke="black"/>
<path d="M35.6003 1.00024C34.5647 4.01242 32.8167 9.93747 34.063 10.098C35.6702 10.305 35.611 4.05322 35.6003 1.00024Z" fill="#D9D9D9" stroke="black"/>
<path d="M45.7461 33.0464L46.1975 42.6752L48.9056 32.7455L52.8173 29.7365L44.6929 18.6031L37.6218 22.5148L34.7632 16.0454L36.719 29.7365L45.7461 33.0464Z" fill="#D9D9D9"/>
<path d="M44.392 14.0896L56.5786 31.241C56.8293 31.6422 57.5415 32.3844 58.384 32.1437C59.2265 31.903 59.1362 30.9401 58.9858 30.4887L47.1002 13.1869C46.5987 12.5851 45.4151 11.5018 44.6929 11.9833C43.9708 12.4647 44.1914 13.5881 44.392 14.0896Z" fill="#D9D9D9"/>
<path d="M45.7461 33.0464L46.1975 42.6752L48.9056 32.7455L52.8173 29.7365L44.6929 18.6031L37.6218 22.5148L34.7632 16.0454L36.719 29.7365L45.7461 33.0464Z" stroke="black"/>
<path d="M44.392 14.0896L56.5786 31.241C56.8293 31.6422 57.5415 32.3844 58.384 32.1437C59.2265 31.903 59.1362 30.9401 58.9858 30.4887L47.1002 13.1869C46.5987 12.5851 45.4151 11.5018 44.6929 11.9833C43.9708 12.4647 44.1914 13.5881 44.392 14.0896Z" stroke="black"/>
<path d="M57.1802 24.4704L52.2153 17.0983C54.121 15.8446 58.3236 13.0662 59.8883 11.983C61.8442 10.6289 69.8181 5.96494 72.2253 4.91179C74.6325 3.85863 76.8893 7.319 77.1902 8.22171C77.4911 9.12441 77.3406 13.1866 77.1902 13.7884C77.0397 14.3902 75.9866 14.992 75.6857 15.2929C75.3848 15.5938 73.2785 15.1425 72.6767 15.4434C72.1952 15.6841 62.1451 21.5617 57.1802 24.4704Z" fill="#D9D9D9" stroke="black"/>
<path d="M33.2586 32.2938L29.7982 19.355L29.3468 19.2046L29.4973 27.9307L0.911621 46.2858L1.36297 63.4372L38.8253 39.2146L40.4802 46.2858L41.3829 35.1524L33.2586 32.2938Z" fill="#D9D9D9" stroke="black"/>
</svg>
