<svg width="51" height="80" viewBox="0 0 51 80" fill="none" xmlns="http://www.w3.org/2000/svg">
<path d="M35.5334 59.1689L32.5244 69.7005L39.4452 57.9653L35.5334 59.1689Z" fill="white"/>
<path d="M14.3198 58.5671L17.3289 69.0987L10.4081 57.3635L14.3198 58.5671Z" fill="white"/>
<path fill-rule="evenodd" clip-rule="evenodd" d="M26.0836 78.9908L28.9136 75.2672L33.5775 57.514L42.1532 54.2041L50.428 41.2653L26.5063 0.643555L0.929688 40.0617L8.90359 53.1509L16.8775 57.514L20.037 74.0636L22.7451 79.0285L26.0836 78.9908ZM5.14229 40.6635L9.05401 41.4157L26.3559 13.8832L43.0559 42.3184L46.8172 41.7166L26.3559 7.41382L5.14229 40.6635ZM16.8774 42.9202L13.1161 42.168L26.2053 21.7066L39.2946 42.9202L35.2324 43.3716L26.2053 28.6274L16.8774 42.9202ZM20.4882 44.5752C22.2936 41.6665 25.9345 35.8791 26.0549 35.9995C26.1752 36.1199 29.7158 41.7668 31.4711 44.5752L25.6035 52.3986L20.4882 44.5752Z" fill="white"/>
</svg>
