<svg width="72" height="74" viewBox="0 0 72 74" fill="none" xmlns="http://www.w3.org/2000/svg">
<path d="M9.96885 27.6063L11.3229 33.6243C10.8716 33.6243 9.78831 33.5641 9.06614 33.3234C8.16343 33.0225 3.19855 28.9603 1.09224 25.9513C-1.01407 22.9423 0.339986 19.9333 1.69404 19.7828C3.0481 19.6324 3.349 20.6855 4.25171 22.3405C4.97388 23.6644 8.36404 26.4027 9.96885 27.6063Z" fill="white"/>
<path d="M34.7931 11.8088L31.6337 16.7737C31.4331 16.5731 31.0018 16.0214 30.8814 15.4196C30.731 14.6674 30.731 13.6142 30.5805 11.5079C30.4301 9.40158 29.3769 6.24211 29.5274 4.88806C29.6778 3.534 31.9346 -0.227276 33.74 2.48084C35.1843 4.64733 35.0439 9.60219 34.7931 11.8088Z" fill="white"/>
<path d="M28.9256 20.8359L25.1643 28.9602C24.8133 27.9071 24.0811 25.5299 23.9607 24.4467C23.8103 23.0926 20.8013 15.4196 20.1995 14.0656C19.5977 12.7115 18.9959 6.99438 19.8986 3.2331C20.8013 -0.528171 24.1112 0.374534 24.8634 2.02949C25.6157 3.68445 25.1643 6.54302 25.1643 8.04753C25.1643 9.55204 25.1643 11.207 26.2175 12.862C27.06 14.1859 28.374 18.7295 28.9256 20.8359Z" fill="white"/>
<path d="M47.2807 26.252C45.5957 29.3814 39.7582 33.0725 37.05 34.5268V31.5178C37.05 30.3142 38.5546 28.2079 39.1564 26.7034C39.7582 25.1989 46.378 19.3313 48.033 17.3754C49.6879 15.4195 50.2897 7.14475 50.8915 5.48979C51.4933 3.83483 53.7501 4.58708 54.5024 5.48979C55.2546 6.3925 55.4051 10.3042 55.2546 11.5078C55.1042 12.7114 52.396 13.6141 51.3429 17.3754C50.2897 21.1367 49.387 22.3403 47.2807 26.252Z" fill="white"/>
<path d="M25.9167 73.4936C19.8987 73.4936 11.9749 70.6851 8.7653 69.2809C9.41724 67.3251 11.0521 62.7815 12.3761 60.2539C13.7 57.7263 14.031 51.277 14.031 48.3683C11.7241 47.2649 6.62885 44.607 4.70308 42.8016C2.29586 40.5448 -0.261803 37.0844 0.640902 34.3763C1.54361 31.6682 3.49952 32.7214 4.40218 33.0223C5.30483 33.3232 8.6148 36.7835 10.7211 38.288C12.4062 39.4916 14.3319 39.6922 15.0842 39.6421C14.3319 37.6361 12.7973 33.4435 12.677 32.7214C12.5265 31.8186 12.2256 29.7123 12.0752 27.7565C11.9247 25.8006 10.5707 22.3402 10.1193 21.4375C9.66796 20.5348 7.41119 18.4285 5.90668 17.3754C4.40218 16.3222 3.04817 13.3132 2.89772 12.7114C2.74726 12.1096 2.89772 10.906 3.49952 10.0033C4.10132 9.10056 5.75628 9.70236 6.35809 10.0033C6.95989 10.3042 17.0401 17.9772 18.6951 20.2339C20.019 22.0393 23.2587 29.9129 24.7131 33.6241C25.5657 32.5709 27.3911 30.0734 27.8726 28.5087C28.4744 26.5529 30.7311 22.0393 31.1825 20.9862C31.6338 19.933 37.0501 14.6672 37.351 14.0654C37.5917 13.584 38.1534 11.5579 38.4041 10.6051C38.6047 8.3483 39.0059 3.77459 39.0059 3.53387C39.0059 3.23297 39.9086 1.72846 40.8114 1.42755C41.7141 1.12665 43.0681 2.02936 43.5195 2.78161C43.9708 3.53387 45.1744 6.84379 45.3249 8.9501C45.4753 11.0564 44.4222 15.4195 44.2717 16.6231C44.1213 17.8267 42.1654 19.4817 40.8114 20.9862C39.4573 22.4907 36.5987 27.3051 35.0942 31.5177C33.5897 35.7304 34.342 40.8457 34.342 41.4475C34.342 41.9289 35.5456 44.0553 36.1474 45.0583H37.9528C37.351 43.6541 36.1474 40.6952 36.1474 40.0934C36.1474 39.3412 36.2978 38.8898 37.0501 37.8367C37.8023 36.7835 40.6609 35.279 43.0681 33.925C45.4753 32.5709 48.6348 28.5087 49.688 27.3051C50.7411 26.1015 51.7943 21.8889 52.0952 20.9862C52.3961 20.0835 56.1574 14.5168 56.6087 13.7645C57.0601 13.0123 61.4231 8.19784 62.4763 8.3483C63.5294 8.49875 64.7331 10.4546 64.7331 11.3573C64.7331 12.26 64.1313 14.5168 63.379 15.7204C62.6267 16.924 58.8655 21.2871 58.1132 22.6411C57.5114 23.7244 57.5616 28.7093 57.6619 31.0664C58.6649 30.3643 60.8213 28.8698 61.4231 28.5087C62.1754 28.0574 62.3258 25.4997 62.4763 24.8979C62.6267 24.2961 63.5294 20.0835 65.034 19.0303C66.5385 17.9772 68.7952 19.1808 69.0961 19.7826C69.397 20.3844 69.397 24.597 68.7952 28.5087C68.1934 32.4204 63.8303 36.3322 62.9276 37.2349C62.0249 38.1376 56.4583 39.7925 55.1042 40.8457C54.0209 41.6882 52.2456 44.0052 51.4934 45.0583H53.5997C54.6027 44.1556 57.0601 42.1697 58.8655 41.4475C61.1222 40.5448 63.379 39.7925 65.9367 38.8898C68.4943 37.9871 68.7952 36.0313 70.2997 36.7835C71.8043 37.5358 71.8043 38.8898 71.3529 39.7925C70.9015 40.6952 70.1493 42.1998 68.7952 43.7043C67.712 44.9079 62.9276 46.7133 60.6709 47.4655C60.4201 49.7725 60.0691 55.1686 60.6709 58.298C61.2727 61.4274 63.8303 66.9239 65.034 69.2809C64.1814 69.5317 61.9648 70.2438 59.9186 71.0863C57.361 72.1395 51.3429 72.5909 46.378 73.4936C41.4132 74.3963 33.4393 73.4936 25.9167 73.4936Z" fill="white"/>
</svg>
