<svg width="61" height="73" viewBox="0 0 61 73" fill="none" xmlns="http://www.w3.org/2000/svg">
<path d="M22.9655 72.1416H25.0718C25.473 68.3301 26.2152 59.6541 25.9745 55.4415C25.6736 50.1757 23.8682 47.7685 22.6646 45.8126C21.461 43.8568 18.1511 40.3964 14.9916 36.4847C11.8321 32.573 10.0267 29.5639 9.12401 24.1477C8.40185 19.8147 10.127 14.9201 11.0799 13.0143C10.9294 15.4216 10.8091 21.0183 11.5312 24.1477C12.4339 28.0594 16.0448 32.7234 17.0979 33.927C18.1511 35.1306 24.7709 41.1487 25.5232 42.5027C26.125 43.586 27.7799 44.9601 28.5322 45.5117C27.2784 42.6532 24.5302 36.6953 23.5673 35.7324C22.3637 34.5288 19.2042 28.0594 16.1952 21.7405C13.788 16.6853 13.5874 5.3915 13.788 0.376465C11.5814 4.08759 7.04777 12.6232 6.56632 17.0765C5.96452 22.6432 5.51317 28.0594 6.56632 30.7676C7.61948 33.4757 15.8943 47.0163 19.2042 51.9811C21.8521 55.953 22.815 67.0764 22.9655 72.1416Z" fill="#A1A1A1"/>
<path d="M20.4079 63.7163C20.3578 65.6721 20.2875 69.6441 20.4079 69.8848C18.2514 69.8848 13.3668 68.8015 11.0799 64.4686C8.22138 59.0524 8.22138 58.4505 7.46912 50.6271C6.71687 42.8036 0.698791 39.1928 0.247438 38.4405C-0.203915 37.6883 3.40691 39.945 6.41593 41.9009C9.42494 43.8568 12.5844 48.6712 13.3367 50.6271C14.0889 52.5829 13.9385 54.6892 15.2925 57.6982C16.3758 60.1055 19.1541 62.7133 20.4079 63.7163Z" fill="#A1A1A1"/>
<path d="M39.0636 30.1657L31.0897 40.9982C30.6885 39.1928 29.8861 35.1607 29.8861 33.4756C29.8861 31.3693 30.3375 29.7143 31.0897 26.254C31.842 22.7936 32.7447 17.8287 32.7447 12.5629C32.7447 8.35031 30.2372 3.18483 28.9834 1.12866C29.6855 1.37941 31.4207 2.21191 32.7447 3.53588C34.3996 5.19084 36.0546 7.7485 37.86 13.1647C39.3043 17.4977 39.2642 26.3041 39.0636 30.1657Z" fill="#A1A1A1"/>
<path d="M37.1078 72.2919C37.83 72.1716 38.512 71.8406 38.7627 71.6901C38.1108 69.1826 37.0777 63.1445 38.1609 59.0523C39.515 53.9369 44.0285 49.1225 46.2853 46.7153C48.542 44.3081 52.1529 37.9891 53.0556 36.3342C53.9583 34.6792 55.7637 28.3603 54.7105 21.7404C53.868 16.4446 51.6514 11.911 50.6484 10.3062L50.197 17.5278C50.0465 19.935 48.3916 24.8999 46.2853 27.608C44.179 30.3161 38.4618 34.6792 32.5942 45.3612C27.9002 53.9068 27.83 62.964 28.3816 66.4244L28.833 66.5748C28.8831 65.8226 29.1339 63.5056 29.7357 60.2559C30.4879 56.1937 34.3997 47.4675 42.3736 38.8918C50.3475 30.3161 49.8961 27.7585 50.6484 25.6521C51.2502 23.9671 51.4006 21.2389 51.4006 20.0855C51.4508 19.7845 51.6714 19.4235 52.1529 20.3864C52.7547 21.59 52.4538 26.5548 52.1529 28.6612C51.852 30.7675 49.2943 36.4846 47.7898 38.8918C46.2853 41.299 41.4709 46.5648 38.4618 49.8747C35.4528 53.1847 34.851 54.0874 33.6474 58.6009C32.6845 62.2117 34.0486 69.4334 34.851 72.5928C35.3024 72.5427 36.3856 72.4123 37.1078 72.2919Z" fill="#A1A1A1"/>
<path d="M47.3389 69.8849C46.8875 70.4867 45.022 71.4797 41.1704 70.6371V68.6813C41.1704 67.4777 42.0731 63.265 42.5245 61.0083C42.9758 58.7515 45.6839 56.0434 46.7371 54.0875C47.7903 52.1317 52.1533 49.574 53.8083 47.6181C55.4632 45.6623 55.7642 44.1578 56.8173 41.6001C57.6598 39.554 57.369 34.228 57.1182 31.8208C58.0711 33.3253 60.037 36.6051 60.2777 37.6884C60.5786 39.0424 60.729 46.4145 59.5254 48.22C58.3218 50.0254 51.702 57.9993 50.047 60.4065C48.723 62.3322 47.69 67.5278 47.3389 69.8849Z" fill="#A1A1A1"/>
</svg>
