<svg width="83" height="79" viewBox="0 0 83 79" fill="none" xmlns="http://www.w3.org/2000/svg">
<path fill-rule="evenodd" clip-rule="evenodd" d="M31.71 1.60174L38.7812 9.57564C38.9818 11.0802 38.8414 15.0822 36.6749 19.0541C34.5084 23.026 27.9488 29.9367 24.9397 32.8955C26.3439 36.0049 29.1825 42.374 29.3028 42.9758C29.4232 43.5776 29.2527 45.6337 29.1524 46.5866L32.4623 48.6929C32.5626 48.743 32.7933 48.8132 32.9136 48.6929C33.0641 48.5424 34.8695 47.7902 36.6749 47.7902C37.9251 47.7902 39.1031 48.5116 39.9093 49.0053C40.2673 49.2245 40.552 49.3989 40.7371 49.4451C41.1383 49.5454 43.0106 53.056 44.3479 55.5635L44.348 55.5636C45.0166 56.8173 45.5515 57.8203 45.702 58.0208C46.1533 58.6227 45.8524 61.7821 45.702 62.3839C45.5816 62.8654 44.4482 64.5905 43.8966 65.3929C43.4954 65.3929 42.5425 65.3328 41.9407 65.092C41.3389 64.8513 40.8875 63.7881 40.7371 63.2866C41.2386 62.8353 42.2717 61.8423 42.392 61.4812C42.5124 61.1201 41.9407 59.3248 41.6398 58.4722C40.5365 56.1653 38.2396 51.4913 37.8785 51.2506C37.5174 51.0098 36.7251 51.3509 36.374 51.5515C36.5245 51.5515 36.9758 51.6718 37.5776 52.1533C38.3299 52.7551 38.4803 54.1091 38.3299 54.7109C38.1794 55.3127 36.5245 55.3127 36.374 55.3127C36.3277 55.3127 36.067 55.1413 35.7197 54.9129C34.94 54.4001 33.7236 53.6 33.5154 53.8082C33.2145 54.1091 33.8163 56.2154 34.2677 57.1181C34.6288 57.8403 34.8194 60.8293 34.8695 62.2335C34.7191 62.4842 34.2376 63.0459 33.5154 63.2866C32.7933 63.5274 31.9106 62.9857 31.5596 62.6848C31.6097 61.8824 31.6799 60.067 31.5596 59.2245C31.4764 58.6421 31.0252 57.8298 30.5876 57.0418C30.2337 56.4047 29.8887 55.7836 29.7542 55.3127C29.5134 54.4702 29.8545 52.4542 30.0551 51.5515L27.0461 49.8965C26.695 50.0469 25.4513 50.408 23.2848 50.6488C20.8428 50.9201 18.4009 48.8671 17.3929 48.0197C17.283 47.9274 17.1902 47.8493 17.1163 47.7902C16.5145 47.3087 14.5586 42.374 13.6559 39.9667H12.6028C12.1514 39.9667 9.29284 39.9667 8.23968 39.5154C7.18653 39.064 1.77025 33.046 1.31889 32.2937C0.867541 31.5415 0.115286 28.382 1.31889 25.5234C2.5225 22.6649 7.63783 14.5405 12.1514 10.3279C16.6649 6.11528 19.9748 3.5576 24.7892 1.60174C28.6408 0.0370494 31.0079 0.949785 31.71 1.60174ZM25.8423 44.4803L24.6387 43.8785L22.9838 43.4272L21.3288 43.8785V45.6839L23.1342 47.3389L22.5324 47.4893L20.2757 46.1353L17.2666 39.365V38.0109L20.8775 35.7542H22.5324C23.6357 38.1614 25.8423 43.036 25.8423 43.2767V44.4803ZM2.07114 31.3911C2.42219 32.1434 3.99691 33.4673 7.48738 32.7452C11.8505 31.8424 18.6207 26.8776 19.9748 25.2226C20.4262 24.671 21.5294 23.4339 22.8166 21.9907C25.391 19.1043 28.701 15.3931 29.0019 14.691C29.1408 14.3668 29.4795 13.8 29.8818 13.1268C30.7858 11.6139 32.0109 9.56379 32.0109 8.52255C32.0109 8.04619 32.0561 7.38883 32.1036 6.69852C32.2062 5.20861 32.3193 3.56521 32.0109 3.25677C31.6498 2.89569 31.2586 2.40422 31.1082 2.20362C31.1583 3.70812 31.1082 6.95786 30.5064 7.92075C29.9046 8.88364 29.4532 9.52556 29.3028 9.72616C26.9457 11.0301 21.6899 14.2698 19.5235 16.7974C18.9712 17.4417 18.35 18.1424 17.6971 18.8789C15.1484 21.754 12.1147 25.1761 10.7973 27.9307C9.58018 30.4756 9.50229 30.4979 9.24705 30.5709C9.15523 30.5972 9.04045 30.6301 8.84143 30.7893C8.23963 31.2707 4.07716 31.3911 2.07114 31.3911Z" fill="#A1A1A1"/>
<path fill-rule="evenodd" clip-rule="evenodd" d="M76.9956 44.6307C77.3567 44.2697 80.9575 38.8635 82.7128 36.2055C82.8632 35.6538 83.0738 34.3399 82.7128 33.4974C82.2615 32.4442 80.9073 29.7361 80.0046 28.6829L79.9237 28.5882C78.8334 27.3097 73.8681 21.4874 64.0568 16.9478C55.9926 13.2166 49.3627 12.9859 47.0558 13.337L44.7991 14.5406L39.5332 22.5145C39.0818 22.9658 38.6606 24.7411 40.5864 28.2316C42.5121 31.7221 48.9113 36.4061 51.8702 38.3118C51.6194 38.7632 51.0277 39.8464 50.6666 40.5686C50.2153 41.4713 48.4099 48.392 48.5603 49.7461C48.7108 51.1001 49.9144 52.6047 50.8171 53.5074C51.5392 54.2295 53.2243 55.1122 53.9766 55.4632L54.5784 59.9767C54.1772 60.1272 53.2244 60.5184 52.6225 60.8795C51.8702 61.3308 50.5162 63.2867 50.3657 64.1894C50.2153 65.0921 49.7639 74.7209 49.9144 75.1723C50.0648 75.6236 50.8171 76.8273 51.5694 77.4291C52.3216 78.0309 53.9766 78.1813 54.5784 78.0309C55.1803 77.8804 55.9324 75.7741 55.4811 75.7741C55.0297 75.7741 53.6757 74.42 53.3748 73.9687C53.1655 73.6547 53.3931 70.428 53.5509 68.1894C53.62 67.2101 53.6757 66.4199 53.6757 66.1452C53.6757 65.4231 54.2775 64.3398 54.5784 63.8885L55.1802 64.1894C55.2805 65.1924 55.8723 67.1683 57.437 67.0479C59.0017 66.9276 58.9917 65.1924 58.7911 64.3398C58.9415 64.39 59.3026 64.5204 59.5433 64.6407C59.8442 64.7912 59.8442 66.1452 59.8442 66.2957C59.8442 66.3153 59.834 66.4011 59.8176 66.5392C59.708 67.4626 59.3207 70.7237 59.8442 72.1633C60.446 73.8182 61.1983 74.42 61.9505 74.42C62.7028 74.42 63.9064 74.42 64.0568 74.1191C64.2073 73.8182 64.0568 72.9155 63.6055 72.1633C63.2232 71.5262 63.2726 68.0836 63.2967 66.4046C63.3011 66.101 63.3046 65.8551 63.3046 65.6939C63.3046 64.6407 63.3046 64.0389 61.9505 62.0831C60.8673 60.5184 58.9917 60.0269 58.1893 59.9767L57.5875 55.0119C57.7881 55.0119 58.2795 54.9216 58.6406 54.5605C58.7703 54.4308 58.9373 54.2886 59.1274 54.1269L59.1274 54.1269C59.5985 53.7259 60.2109 53.2046 60.7469 52.4542C61.3487 51.6117 62.7028 46.4863 63.3046 44.0289C64.5583 44.38 67.457 45.1724 69.0217 45.5335C70.9776 45.9848 76.5443 45.0821 76.9956 44.6307ZM57.8882 50.7993L60.108 42.9563L54.7288 40.1173L52.1711 48.2416C52.2213 48.9939 52.3516 50.5285 52.472 50.6488C52.5924 50.7692 53.0237 50.7993 53.2243 50.7993V48.693C53.2243 47.6398 55.7819 47.7903 56.0828 48.2416C56.3235 48.6027 56.7849 50.1975 56.9855 50.9497L57.8882 50.7993ZM45.8571 15.0298C45.2215 15.5638 44.3506 17.4277 45.9522 20.612C47.9543 24.5923 54.5034 29.8455 56.4526 30.7246C57.1024 31.0177 58.583 31.7629 60.3103 32.6323C63.7651 34.3712 68.2069 36.6068 68.963 36.7156C69.3122 36.7658 69.9474 36.9462 70.7018 37.1603C72.3972 37.6416 74.6947 38.2938 75.7004 38.0241C76.1605 37.9007 76.8072 37.7741 77.4862 37.6412C78.9518 37.3544 80.5684 37.0379 80.7865 36.6601C81.0417 36.2178 81.4151 35.7127 81.5698 35.5154C80.1297 35.9536 76.9779 36.7469 75.892 36.4151C74.806 36.0832 74.0691 35.8135 73.8364 35.7202C71.9664 33.7813 67.4759 29.5441 64.4734 28.1063C63.708 27.7398 62.8704 27.3213 61.9898 26.8814C58.5527 25.1644 54.4616 23.1208 51.4597 22.5618C48.6864 22.0455 48.6447 21.976 48.508 21.7484C48.4589 21.6665 48.3974 21.5642 48.1921 21.4132C47.5712 20.9566 46.3767 16.9674 45.8571 15.0298Z" fill="#A1A1A1"/>
</svg>
