<svg width="57" height="80" viewBox="0 0 57 80" fill="none" xmlns="http://www.w3.org/2000/svg">
<path fill-rule="evenodd" clip-rule="evenodd" d="M39.1973 67.4489C35.1352 73.9684 23.6106 85.0517 10.0098 77.2282C-3.59092 69.4048 -0.371269 54.811 2.93865 48.4921L5.79717 43.9785C5.69687 45.132 5.67681 47.469 6.39897 47.5894C7.30168 47.7398 10.9125 40.6686 11.5143 39.3146C11.9957 38.2313 13.6206 36.5563 14.3729 35.8542C14.3227 36.7569 14.4631 38.7128 15.426 39.3146C16.6296 40.0668 17.3819 39.6155 18.7359 37.0578C19.3079 35.9774 19.6651 35.0312 20.0231 34.0831C20.5124 32.7869 21.0031 31.4872 22.0459 29.8362C23.4902 27.5493 25.3558 25.9746 26.108 25.4731C25.7068 26.777 25.0549 29.4751 25.6567 29.8362C26.4089 30.2875 27.0107 29.9866 28.0639 28.9335C28.6034 28.394 31.6692 23.4728 34.6935 18.6183C37.5734 13.9957 40.4156 9.4335 41.0027 8.77303C41.9656 7.68978 43.4099 6.61657 44.0117 6.21536C43.4601 7.77002 42.6877 10.9094 44.0117 11.0298C45.6667 11.1802 50.4811 5.76401 50.9324 4.86131C51.2935 4.13914 54.4931 1.35078 56.0478 0.046875C54.3427 3.20634 51.2334 9.76601 52.437 10.7289C53.6406 11.6918 55.0448 10.6286 55.5964 9.97664C55.7469 10.7289 55.6867 12.8352 54.2424 15.2424C52.437 18.2514 44.6135 31.6416 44.3126 32.5443C44.0117 33.447 43.2595 35.7038 44.9144 35.5533C46.2384 35.4329 47.773 34.1992 48.3748 33.5974C47.5222 35.9545 45.4259 41.3306 43.8613 43.9785C43.1569 45.1705 42.2769 46.4991 41.4321 47.7746C39.9312 50.0408 38.5413 52.1392 38.445 53.0056C38.2946 54.3597 38.5955 55.4128 40.2504 54.811C41.5744 54.3296 42.2063 53.6074 42.3567 53.3065C42.106 54.8612 41.1231 58.5121 39.1973 60.6786C36.7901 63.3867 35.1351 66.3957 35.2856 67.148C35.2895 67.1679 35.2935 67.188 35.2975 67.2083C35.4452 67.9546 35.6382 68.9295 37.5423 68.0507C39.107 67.3285 39.2976 67.3486 39.1973 67.4489ZM20.2405 47.8903C19.2375 47.5894 16.6598 47.3788 14.3729 48.9435C11.5144 50.8993 7.75308 54.2092 7.30173 55.4129C6.85038 56.6165 5.94767 60.6786 5.94767 62.4841C5.94767 62.8888 5.91742 63.3314 5.88574 63.7949C5.77613 65.3985 5.64946 67.2519 6.69993 68.6525C8.05399 70.458 12.8684 73.6174 14.072 73.6174C14.3561 73.6174 14.6654 73.609 14.992 73.6002C16.0486 73.5715 17.2857 73.538 18.4351 73.7679C18.8649 73.8538 19.2948 73.9889 19.7247 74.124C20.7993 74.4618 21.874 74.7995 22.9486 74.3697C24.4531 73.7679 30.0198 68.5021 30.7721 66.5462C30.8856 66.2511 31.0128 65.9422 31.1455 65.6202C31.8919 63.8082 32.8103 61.5786 32.427 59.0237C31.9757 56.0147 29.5685 51.802 28.6658 50.8993C27.763 49.9966 26.1081 48.4921 23.7009 48.0408C21.7751 47.6797 20.5916 47.79 20.2405 47.8903Z" fill="white"/>
</svg>
