<svg width="41" height="80" viewBox="0 0 41 80" fill="none" xmlns="http://www.w3.org/2000/svg">
<path fill-rule="evenodd" clip-rule="evenodd" d="M0.815139 79.2919C7.53528 76.985 22.4801 70.3852 28.4981 62.4414C35.8128 52.7859 40.567 46.4023 39.9942 41.0774C39.0709 34.5578 35.4489 19.5328 28.3477 11.589C20.5638 2.88164 19.9526 2.50382 18.7028 1.7312C18.5273 1.62273 18.3393 1.50647 18.117 1.3583C16.7017 0.414759 11.6805 1.41285 8.92436 1.9607C8.16469 2.1117 7.5771 2.2285 7.28453 2.26101C6.83318 2.31116 6.16451 2.31116 5.44569 2.31116C4.00804 2.31116 2.3698 2.31116 1.8683 2.71236C1.11604 3.31416 0.363787 10.0845 0.514237 11.2881L0.514241 11.2881C0.664705 12.4918 1.8683 22.1206 7.28453 30.6962C12.1035 38.3262 11.563 48.219 11.3852 51.4738C11.3632 51.8772 11.3467 52.1787 11.3467 52.3612C11.3467 54.0161 9.69177 64.5477 5.78005 71.4684C2.65067 77.005 1.1662 78.991 0.815139 79.2919ZM12.099 68.6099C11.8483 68.7603 11.2565 68.9408 10.8954 68.4594C10.5344 67.978 10.9456 67.0552 11.1963 66.654C12.3999 63.645 14.8974 56.8747 15.2585 53.8657C15.7098 50.1044 15.7098 42.4314 15.2585 39.8737C14.8974 37.8276 14.6065 37.5167 14.5062 37.617C15.5594 36.5137 17.455 33.3743 16.6125 29.6431C15.5594 24.9791 10.8954 23.3241 9.99267 23.3241H7.435L5.93049 19.5629C7.7359 18.8608 12.2795 18.5699 16.0107 23.0232C20.6747 28.5899 20.9756 33.4044 20.6747 38.2188C20.4849 41.2553 20.1156 43.3941 19.8687 44.8238C19.7241 45.661 19.6215 46.2551 19.6215 46.644C19.6215 47.6972 20.3738 49.2017 21.4269 49.3521C22.2695 49.4725 23.5834 49.4023 24.1351 49.3521C23.433 49.0512 21.9686 48.2388 21.7278 47.3963C21.5718 46.8501 22.0228 44.2399 22.4931 41.5177C22.9296 38.9913 23.3828 36.3685 23.3828 35.2098C23.3828 32.8025 22.781 25.1295 20.0729 21.3683C17.3648 17.607 14.0548 14.8989 9.99267 14.1466C6.74293 13.5448 5.02779 13.4947 4.57644 13.5448L4.12508 9.3322C6.3317 9.2319 12.2193 10.0544 18.117 14.1466C25.4891 19.262 27.445 30.3953 27.7459 33.5548C27.905 35.2261 27.8116 37.4026 27.7328 39.238C27.6627 40.8723 27.6041 42.2362 27.7459 42.7323C27.9053 43.2901 28.3601 44.0168 28.7527 44.644C29.1013 45.201 29.4008 45.6795 29.4008 45.8918C29.4008 46.3431 27.2945 50.2548 25.4891 51.9098C24.4534 52.8593 24.2594 53.8582 24.0834 54.7647C23.9526 55.4382 23.8318 56.0607 23.3828 56.5738C23.0463 56.9584 22.5562 57.7884 21.9567 58.8037C20.6798 60.9661 18.9067 63.969 17.0639 65.2999C14.8974 66.8646 12.8513 68.1585 12.099 68.6099Z" fill="white"/>
</svg>
