<svg width="76" height="74" viewBox="0 0 76 74" fill="none" xmlns="http://www.w3.org/2000/svg">
<path fill-rule="evenodd" clip-rule="evenodd" d="M60.9949 66.9293C60.3239 67.4288 59.7994 67.8193 59.4811 68.1376C57.3748 70.2439 39.4711 75.8106 27.5855 71.2971C18.077 67.6863 12.7912 65.5799 11.3368 64.9781L12.5404 61.2169L1.55749 52.6412L6.07102 46.7736L0.0529785 34.1357L8.32778 26.3123L6.07102 16.5329L19.7621 11.869L22.0188 2.84191L40.2234 5.09867L41.5774 0.133789L61.7379 11.1167L62.791 8.55904C68.0207 13.4371 77.825 26.6477 75.5794 41.6582C73.1528 57.8778 64.7636 64.1235 60.9949 66.9293ZM65.9504 54.597L63.8441 49.6321L49.2504 47.2249C50.3537 46.1718 52.5302 43.4636 52.4099 41.0564C52.2895 38.6492 51.5573 36.242 51.2063 35.3393L69.4108 36.9943L65.1982 30.5249L69.4108 21.9492C67.5553 19.8428 63.2724 15.3594 60.9856 14.2762C58.6987 13.1929 53.3126 10.6152 50.9053 9.46173L50.6045 10.8158C51.106 11.1167 52.0488 11.8689 51.8081 12.4708C51.5673 13.0726 50.5041 13.8248 50.0026 14.1257L49.4008 17.887C49.9023 18.1879 50.9053 18.9101 50.9053 19.3915C50.9053 19.8729 49.5011 20.896 48.799 21.3474L48.0468 25.4095C48.4981 25.6603 49.4008 26.3423 49.4008 27.0645C49.4008 27.7867 48.1972 28.4687 47.5954 28.7195L47.1441 30.224C46.3918 29.7726 44.436 28.8097 42.6306 28.569C40.8251 28.3283 38.5684 28.9702 37.6657 29.3213L38.5684 25.56C38.117 25.2591 37.2444 24.4767 37.3648 23.7546C37.4851 23.0324 38.6185 22.3504 39.1702 22.0996L39.6216 18.1879C39.2204 18.0876 38.3879 17.6463 38.2675 16.6834C38.1471 15.7205 39.421 15.3795 40.0729 15.3293L41.1261 8.25813C37.4651 8.40858 28.6386 9.97327 22.6206 15.0284C15.619 20.9098 14.0914 24.7058 13.5495 26.0525C13.5092 26.1527 13.4744 26.2393 13.4431 26.3122C13.082 27.1548 12.5905 28.9702 12.3899 29.7726L32.5504 32.4807C31.6978 33.6342 29.9927 36.5128 29.9927 38.7997C29.9927 41.0865 30.7951 43.8648 31.1963 44.9682L10.735 43.4636C10.8854 46.6733 12.089 54.0855 15.6999 58.0574C20.2134 63.0223 23.5233 65.7304 27.7359 67.5358C31.106 68.9801 30.2435 68.1376 29.3909 67.5358L29.5414 66.4826L31.1963 65.7304L31.9486 61.5178C31.5474 61.1667 30.745 60.2841 30.745 59.5619C30.745 58.8397 31.9486 58.3583 32.5504 58.2078L33.3026 54.8979C32.8513 54.4967 31.9486 53.5439 31.9486 52.9421C31.9486 52.3402 33.2525 51.4877 33.9044 51.1366C33.8041 50.2841 33.6637 48.6091 33.9044 48.7294C33.957 48.7557 34.0556 48.8188 34.1953 48.9082C34.8548 49.3302 36.4315 50.3391 38.418 50.8357C40.3437 51.3172 42.7309 51.0363 43.6837 50.8357L42.9315 53.9952C43.4831 54.3964 44.5564 55.3192 44.436 55.8006C44.3156 56.2821 42.9816 57.1045 42.3297 57.4556L41.5774 61.5178C42.0288 61.8688 42.9014 62.7214 42.781 63.3232C42.6607 63.925 41.3267 64.7775 40.6747 65.1286L40.3738 69.0403C42.2294 68.94 46.3016 68.619 47.7459 68.1376C49.1902 67.6562 51.5573 67.2349 52.5603 67.0844L54.9676 59.7123L65.9504 54.597Z" fill="white"/>
</svg>
