<svg width="65" height="81" viewBox="0 0 65 81" fill="none" xmlns="http://www.w3.org/2000/svg">
<path fill-rule="evenodd" clip-rule="evenodd" d="M54.3839 73.8857L52.5785 76.7443C49.0178 78.0482 40.2716 80.6861 33.7721 80.8065C27.2726 80.9268 16.1192 78.65 11.3549 77.4965L9.24859 74.9389C9.24859 72.5317 9.09814 67.3862 8.49633 66.0623C8.15802 65.318 7.27196 64.4215 6.27609 63.414C5.05761 62.1812 3.67474 60.7822 2.92965 59.292C2.84075 59.1142 2.7499 58.9331 2.65783 58.7497L2.65734 58.7487C1.34721 56.1378 -0.210031 53.0344 0.0710799 51.7694C0.202221 51.1793 0.933479 50.532 1.72931 49.8276C2.7595 48.9157 3.89789 47.908 3.98277 46.8046C4.03013 46.1889 3.74955 44.1572 3.38033 41.4836C2.57653 35.6631 1.3526 26.8005 2.17736 22.8829C3.38097 17.1657 10.7531 9.79364 13.0098 7.53687L13.0098 7.53687C14.8152 5.73146 16.4702 5.3804 17.072 5.43055L22.7891 14.1567L19.3288 18.5198L27.0018 22.8829L29.5594 24.9892L26.5504 17.1657L29.1081 13.1036L25.0459 1.81973C27.754 0.415523 35.5474 -1.21938 45.0559 3.47469C56.9415 9.34228 59.6496 16.5639 61.0037 21.2279C62.3577 25.8919 61.0037 36.5739 60.4019 40.1847C59.9204 43.0734 60.2013 45.1997 60.4019 45.9019C61.6055 47.5067 64.0729 50.8667 64.3136 51.4685C64.6145 52.2208 61.3046 58.2388 58.8974 60.7965C56.9716 62.8426 55.788 64.6581 55.437 65.31C55.0859 67.0653 54.3839 70.9068 54.3839 72.2308V73.8857ZM46.7108 33.1136L54.0829 38.5298C53.4309 39.7334 51.9465 42.2911 51.2243 42.8929C50.3216 43.6451 48.3658 45.1496 46.4099 45.4505C44.454 45.7514 40.6928 43.0433 39.6396 41.6893C38.7971 40.606 37.1822 38.931 36.4801 38.2289C37.6336 37.7775 40.4219 36.6341 42.3477 35.6712C44.2735 34.7083 46.0588 33.5649 46.7108 33.1136ZM10.0008 38.6803L17.3729 33.264C18.0248 33.7154 19.8102 34.8588 21.736 35.8217C23.6617 36.7846 26.4501 37.928 27.6035 38.3794C26.9014 39.0815 25.2866 40.7565 24.4441 41.8397C23.3909 43.1938 19.6297 45.9019 17.6738 45.601C15.7179 45.3001 13.7621 43.7956 12.8594 43.0433C12.1372 42.4415 10.6527 39.8839 10.0008 38.6803ZM37.6838 54.3271C37.0318 54.979 35.4872 56.2528 34.5243 56.1325C34.0041 56.0674 33.5963 55.9462 33.2037 55.8295C32.688 55.6762 32.1987 55.5307 31.5153 55.5307C31.0238 55.5307 30.5324 55.5808 30.0511 55.63C29.3538 55.7012 28.6781 55.7701 28.0549 55.6811C27.0018 55.5307 26.4 54.7784 26.4 53.7253C26.4 52.6721 27.9045 46.955 29.7099 44.6982C31.5153 42.4414 32.8694 42.7423 33.9225 44.6982C34.9757 46.6541 36.7811 50.4153 37.082 51.6189C37.3227 52.5818 37.5835 53.8256 37.6838 54.3271Z" fill="white"/>
</svg>
