<svg width="51" height="84" viewBox="0 0 51 84" fill="none" xmlns="http://www.w3.org/2000/svg">
<path fill-rule="evenodd" clip-rule="evenodd" d="M22.763 3.06902C22.763 1.98577 21.1582 0.912554 20.3558 0.511351L19.4531 0.210449C19.4029 1.063 19.2425 3.00884 19.0017 3.97172C18.781 4.85475 18.3173 5.41387 17.4324 6.48081L17.4324 6.48089C17.1111 6.86822 16.7344 7.32247 16.2936 7.88345C14.6387 9.98976 13.5855 11.3438 12.8333 12.8483C12.081 14.3528 11.1783 17.5123 11.3287 20.07C11.3952 21.1993 11.7256 23.0033 12.061 24.8344C12.4852 27.1502 12.9173 29.5093 12.8333 30.6015C12.7129 32.1662 11.3789 34.8643 10.7269 36.0178C7.91852 40.5814 2.2415 49.9194 2.00078 50.762C1.69988 51.8151 -0.857785 65.0548 2.75304 71.8251C6.36386 78.5954 10.8774 81.3035 17.9486 82.6576C25.0198 84.0116 31.1883 83.5603 37.8081 80.0999C44.4279 76.6395 47.2865 70.3206 49.0919 65.9575C50.8973 61.5944 50.446 53.9214 48.3397 47.1511C46.716 41.9323 42.4104 38.3226 39.6955 36.0465L39.6954 36.0464C38.8883 35.3698 38.2218 34.811 37.8081 34.3628C36.9857 33.4718 36.4755 31.4257 35.9219 29.2058L35.9219 29.2057C35.2602 26.5524 34.5367 23.6508 33.1441 22.1763C32.0759 21.0453 30.273 19.7306 28.4586 18.4075C25.9286 16.5626 23.3763 14.7015 22.763 13.2997C21.9662 11.4783 22.3751 7.33153 22.6214 4.8344C22.7006 4.03114 22.763 3.39857 22.763 3.06902ZM22.1613 65.807C21.286 68.2868 18.4308 69.3523 17.1608 69.8263L17.0459 69.8692C16.745 70.0196 15.722 70.2002 14.0369 69.7187C11.9306 69.1169 10.1252 66.7097 9.52337 64.9043C8.92157 63.0989 8.92157 60.6917 9.37292 59.3376C9.734 58.2544 11.2285 56.78 11.9306 56.1782C11.8303 56.128 11.5394 56.0578 11.1783 56.1782C10.727 56.3286 9.67382 57.0809 9.07202 57.8331C8.59058 58.4349 7.86841 59.9896 7.56751 60.6917C7.56751 60.14 7.71796 58.7358 8.31976 57.5322C9.07202 56.0277 12.3819 53.7709 16.2937 54.0718C19.7499 54.3377 21.092 56.9526 21.669 58.0769C21.745 58.225 21.8078 58.3473 21.8603 58.4349C22.3117 59.1872 23.064 63.2493 22.1613 65.807ZM31.4971 69.1014C30.2271 68.6274 27.3719 67.5619 26.4967 65.0821C25.594 62.5245 26.3462 58.4623 26.7976 57.71C26.8501 57.6224 26.9129 57.5002 26.9889 57.352C27.566 56.2277 28.908 53.6128 32.3642 53.347C36.276 53.0461 39.5859 55.3028 40.3381 56.8073C40.9399 58.0109 41.0904 59.4151 41.0904 59.9668C40.7895 59.2647 40.0673 57.71 39.5859 57.1082C38.9841 56.356 37.9309 55.6037 37.4796 55.4533C37.1185 55.3329 36.8276 55.4031 36.7273 55.4533C37.4294 56.0551 38.9239 57.5295 39.285 58.6127C39.7363 59.9668 39.7363 62.374 39.1345 64.1794C38.5327 65.9848 36.7273 68.3921 34.621 68.9939C32.936 69.4753 31.9129 69.2948 31.612 69.1443C31.5753 69.1306 31.537 69.1162 31.4971 69.1014Z" fill="white"/>
</svg>
