<svg width="76" height="74" viewBox="0 0 76 74" fill="none" xmlns="http://www.w3.org/2000/svg">
<path fill-rule="evenodd" clip-rule="evenodd" d="M60.9947 66.9293C60.3237 67.4288 59.7992 67.8193 59.4809 68.1376C57.3745 70.2439 39.4709 75.8106 27.5853 71.2971C18.0768 67.6863 12.7909 65.5799 11.3366 64.9781L12.5402 61.2169L1.55724 52.6412L6.07077 46.7736L0.0527344 34.1357L8.32754 26.3123L6.07077 16.5329L19.7618 11.869L22.0186 2.84191L40.2231 5.09867L41.5772 0.133789L61.7376 11.1167L62.7908 8.55904C68.0204 13.4371 77.8248 26.6477 75.5791 41.6582C73.1526 57.8778 64.7633 64.1235 60.9947 66.9293ZM65.9502 54.597L63.8439 49.6321L49.2501 47.2249C50.3535 46.1718 52.53 43.4636 52.4096 41.0564C52.2893 38.6492 51.5571 36.242 51.206 35.3393L69.4106 36.9943L65.1979 30.5249L69.4106 21.9492C67.555 19.8428 63.2722 15.3594 60.9853 14.2762C58.6985 13.1929 53.3123 10.6152 50.9051 9.46173L50.6042 10.8158C51.1057 11.1167 52.0485 11.8689 51.8078 12.4708C51.5671 13.0726 50.5039 13.8248 50.0024 14.1257L49.4006 17.887C49.9021 18.1879 50.9051 18.9101 50.9051 19.3915C50.9051 19.8729 49.5009 20.896 48.7988 21.3474L48.0465 25.4095C48.4979 25.6603 49.4006 26.3423 49.4006 27.0645C49.4006 27.7867 48.197 28.4687 47.5952 28.7195L47.1438 30.224C46.3916 29.7726 44.4357 28.8097 42.6303 28.569C40.8249 28.3283 38.5681 28.9702 37.6654 29.3213L38.5681 25.56C38.1168 25.2591 37.2442 24.4767 37.3645 23.7546C37.4849 23.0324 38.6183 22.3504 39.17 22.0996L39.6213 18.1879C39.2201 18.0876 38.3876 17.6463 38.2673 16.6834C38.1469 15.7205 39.4207 15.3795 40.0727 15.3293L41.1258 8.25813C37.4649 8.40858 28.6384 9.97327 22.6204 15.0284C15.6187 20.9098 14.0912 24.7058 13.5493 26.0525C13.509 26.1527 13.4741 26.2393 13.4429 26.3122C13.0818 27.1548 12.5903 28.9702 12.3897 29.7726L32.5501 32.4807C31.6976 33.6342 29.9925 36.5128 29.9925 38.7997C29.9925 41.0865 30.7949 43.8648 31.1961 44.9682L10.7347 43.4636C10.8852 46.6733 12.0888 54.0855 15.6996 58.0574C20.2132 63.0223 23.5231 65.7304 27.7357 67.5358C31.1058 68.9801 30.2432 68.1376 29.3907 67.5358L29.5411 66.4826L31.1961 65.7304L31.9483 61.5178C31.5471 61.1667 30.7447 60.2841 30.7447 59.5619C30.7447 58.8397 31.9483 58.3583 32.5501 58.2078L33.3024 54.8979C32.851 54.4967 31.9483 53.5439 31.9483 52.9421C31.9483 52.3402 33.2522 51.4877 33.9042 51.1366C33.8039 50.2841 33.6635 48.6091 33.9042 48.7294C33.9568 48.7557 34.0553 48.8188 34.195 48.9082C34.8546 49.3302 36.4312 50.3391 38.4177 50.8357C40.3435 51.3172 42.7306 51.0363 43.6835 50.8357L42.9312 53.9952C43.4829 54.3964 44.5561 55.3192 44.4358 55.8006C44.3154 56.2821 42.9814 57.1045 42.3294 57.4556L41.5772 61.5178C42.0285 61.8688 42.9012 62.7214 42.7808 63.3232C42.6604 63.925 41.3264 64.7775 40.6745 65.1286L40.3736 69.0403C42.2291 68.94 46.3013 68.619 47.7457 68.1376C49.19 67.6562 51.5571 67.2349 52.5601 67.0844L54.9673 59.7123L65.9502 54.597Z" fill="#A1A1A1"/>
</svg>
