<svg width="60" height="80" viewBox="0 0 60 80" fill="none" xmlns="http://www.w3.org/2000/svg">
<path d="M51.4101 5.41436C50.183 4.46109 49.8762 1.93888 49.8762 0.796933C49.7228 0.647982 49.2013 0.290503 48.3423 0.0521864C47.4833 -0.18613 44.2007 0.449386 42.6668 0.796933C42.4112 0.449384 41.7158 -0.186132 40.9795 0.0521864C40.2432 0.290505 39.9569 1.44238 39.9058 1.98853C38.9854 2.58432 36.8073 4.01424 35.4574 4.96751C34.1076 5.92079 32.2362 8.3437 31.4693 9.43599C30.7534 9.28704 29.2604 9.07851 29.015 9.43599C28.7696 9.79347 29.1173 11.3723 29.3218 12.1171C28.7594 12.9115 27.5118 14.7386 27.0209 15.6919C26.5301 16.6451 25.2825 19.4652 24.7201 20.7561C23.9531 20.7561 22.3885 20.8753 22.2658 21.3519C22.1431 21.8286 22.8282 23.2386 23.1862 23.8841L19.9649 32.3742C19.198 32.6224 17.6334 33.2381 17.5107 33.7147C17.388 34.1914 18.1754 35.4028 18.5844 35.949L15.3632 46.2265C14.7497 46.1768 13.4612 46.1669 13.2157 46.5244C12.9703 46.8818 13.6248 48.4607 13.9827 49.2055L10.9149 58.7382C10.2502 58.8375 8.85944 59.1553 8.61401 59.6319C8.36859 60.1085 9.12532 61.6179 9.53436 62.313C8.56288 64.0507 6.46654 67.7049 5.85297 68.4199C5.08602 69.3136 1.25125 73.3352 0.330905 74.6758C-0.58944 76.0163 0.484297 78.2506 2.63177 79.4421C4.77924 80.6337 6.46655 79.5911 6.77333 79.2932C7.08011 78.9953 9.68776 72.5905 9.84115 72.1436C9.96386 71.7862 12.9601 67.6255 14.4429 65.5899C15.3121 65.5899 17.1119 65.5601 17.3573 65.4409C17.6027 65.3218 17.6641 63.4053 17.6641 62.4619L24.5667 55.7592C25.4359 55.8585 27.2357 55.9975 27.4811 55.7592C27.7265 55.5209 27.6856 53.9718 27.6345 53.2271L34.6905 46.2265C35.7131 46.3754 37.8197 46.5839 38.0651 46.2265C38.3105 45.869 38.1674 44.2901 38.0651 43.5454L44.5075 36.6937C45.4279 36.8427 47.3299 37.081 47.5753 36.8427C47.8208 36.6043 47.6776 34.6581 47.5753 33.7147C48.0866 33.1189 49.3853 31.5996 50.4898 30.2889C51.5942 28.9781 52.8929 26.9624 53.4042 26.1183C54.0177 26.2176 55.3369 26.2673 55.7051 25.6715C56.0732 25.0757 55.4494 23.6358 55.0915 22.9904C55.6028 22.0967 56.7788 19.922 57.3924 18.3729C58.0059 16.8239 58.1593 14.3513 58.1593 13.3087C58.7729 12.8618 60 11.7894 60 11.0744C60 10.3595 58.7729 10.4786 58.1593 10.6276C58.1593 10.1311 58.0979 8.89977 57.8525 7.9465C57.6071 6.99322 56.8299 6.05981 56.472 5.71226C55.296 6.01016 52.6372 6.36764 51.4101 5.41436Z" fill="white"/>
</svg>
