<svg width="79" height="78" viewBox="0 0 79 78" fill="none" xmlns="http://www.w3.org/2000/svg">
<path d="M41.1458 12.9498L39.5 0L38.7519 0.451737L38.4527 1.65637L37.8542 12.1969L37.7045 12.6486H37.2557L36.8068 12.4981L30.822 7.67954H29.9242L29.7746 8.43243L32.1686 11.7452L37.2557 17.3166L36.8068 29.6641V32.6757H36.358L25.286 22.2857L25.1364 16.2625L24.3883 11.444L23.6402 10.5405L23.1913 11.444L22.4432 14.305L22.1439 18.2201L21.9943 19.2741L21.3958 19.1236L12.7178 11.444L11.6705 11.1429L11.3712 11.8958L12.7178 14.1544L18.8523 21.2317L19.1515 21.9846H16.9072L11.8201 22.7375L10.4735 23.3398L11.8201 24.2432L16.3087 24.9961L22.5928 25.2973L33.0663 36.2896L32.6174 36.7413L17.2064 37.0425L12.7178 32.9768L8.67803 29.8147H7.92992L7.7803 30.417L8.22917 31.6216L12.1193 36.139L13.1667 37.3436L12.7178 37.6448C10.274 37.7954 5.11705 38.1266 4.03977 38.2471C2.9625 38.3676 1.19697 38.7992 0.448864 39L0 39.4517L2.99242 40.2046L12.7178 40.8069V41.2587L7.63068 48.1853H8.97727L11.6705 46.529L17.9545 41.2587L32.767 41.7104V42.3127L22.5928 53.1544L14.214 53.6062L10.3239 54.5097L11.5208 55.2626L14.214 55.8649L19.0019 56.166L19.3011 56.9189L17.2064 59.1776L11.3712 65.9537L11.5208 66.8571L12.7178 66.556L16.4583 63.695L21.6951 59.1776L22.1439 59.6293L22.4432 65.8031L23.1913 67.9112L24.089 67.61L24.6875 65.8031L25.1364 56.0154L36.2083 45.9266L36.8068 46.2278L37.2557 61.1351L30.0739 69.5676L29.7746 70.7722L33.0663 69.1158L36.8068 65.8031L37.4053 66.2548L38.1534 76.7954L38.9015 78L39.6496 77.2471L40.3977 72.5792L40.9962 65.8031L43.0909 67.0077L46.9811 70.0193L48.7765 70.3205L47.4299 68.2124L41.2955 60.6834L41.8939 45.9266L42.642 46.2278L53.2652 55.8649L53.5644 65.3514L54.4621 67.9112L55.2102 67.0077L55.8087 65.0502L56.4072 59.6293L57.4545 59.7799L64.4867 65.8031L66.8807 67.0077L66.5814 65.6525L59.5492 56.4672L67.1799 55.5637L68.2273 54.5097L67.1799 54.0579L56.2576 53.6062L46.0833 43.0656V41.7104L60.8958 40.9575L70.4716 48.7876L70.9205 48.3359L66.1326 40.9575L78.1023 39.9035L79 39C78.3516 38.8494 76.9951 38.5483 76.7557 38.5483C76.5163 38.5483 70.2721 38.0463 67.1799 37.7954L66.1326 37.4942L66.4318 36.5907L68.3769 34.6332L70.9205 30.5676V29.8147L68.3769 31.3205L61.1951 37.3436L46.0833 36.8919V36.139L56.2576 25.5985L67.928 24.0927L68.3769 23.6409L66.4318 22.5869L59.9981 21.834V21.2317L67.1799 12.4981V11.7452H66.4318L56.8561 19.2741L56.5568 13.251L55.2102 10.5405L54.4621 11.444L53.2652 22.888L42.3428 32.8263L41.8939 32.3745L41.1458 17.4672L49.0758 7.9807L41.1458 12.9498Z" fill="white"/>
</svg>
