<svg width="78" height="63" viewBox="0 0 78 63" fill="none" xmlns="http://www.w3.org/2000/svg">
<path d="M52.4916 54.607C51.0676 51.7578 48.064 46.3597 47.0763 47.1366C45.8027 48.1385 50.3055 52.4759 52.4916 54.607Z" fill="#A1A1A1"/>
<path d="M60.5841 46.0324C57.8664 44.3712 52.458 41.386 52.0324 42.5683C51.4835 44.0929 57.6007 45.3841 60.5841 46.0324Z" fill="#A1A1A1"/>
<path d="M40.1881 58.8499C41.2237 55.8377 42.9717 49.9126 41.7253 49.7521C40.1182 49.5451 40.1773 55.7969 40.1881 58.8499Z" fill="#A1A1A1"/>
<path d="M23.2965 4.24261C24.7205 7.0918 27.7241 12.4899 28.7118 11.713C29.9853 10.7111 25.4826 6.37368 23.2965 4.24261Z" fill="#A1A1A1"/>
<path d="M15.2044 12.8172C17.9222 14.4784 23.3305 17.4636 23.7562 16.2813C24.3051 14.7567 18.1878 13.4655 15.2044 12.8172Z" fill="#A1A1A1"/>
<path d="M35.6005 0.000237867C34.5649 3.01242 32.8169 8.93747 34.0632 9.09797C35.6704 9.30495 35.6113 3.05322 35.6005 0.000237867Z" fill="#A1A1A1"/>
<path d="M45.7461 32.0464L46.1975 41.6752L48.9056 31.7455L52.8173 28.7365L44.6929 17.6031L37.6218 21.5148L34.7632 15.0454L36.719 28.7365L45.7461 32.0464Z" fill="#A1A1A1"/>
<path d="M44.392 13.0896L56.5786 30.241C56.8293 30.6422 57.5415 31.3844 58.384 31.1437C59.2265 30.903 59.1362 29.9401 58.9858 29.4887L47.1002 12.1869C46.5987 11.5851 45.4151 10.5018 44.6929 10.9833C43.9708 11.4647 44.1914 12.5881 44.392 13.0896Z" fill="#A1A1A1"/>
<path d="M57.1802 23.4704L52.2153 16.0983C54.121 14.8446 58.3236 12.0662 59.8883 10.983C61.8442 9.62892 69.8181 4.96494 72.2253 3.91179C74.6325 2.85863 76.8893 6.319 77.1902 7.22171C77.4911 8.12441 77.3406 12.1866 77.1902 12.7884C77.0397 13.3902 75.9866 13.992 75.6857 14.2929C75.3848 14.5938 73.2785 14.1425 72.6767 14.4434C72.1952 14.6841 62.1451 20.5617 57.1802 23.4704Z" fill="#A1A1A1"/>
<path d="M33.2586 31.2938L29.7982 18.355L29.3468 18.2046L29.4973 26.9307L0.911621 45.2858L1.36297 62.4372L38.8253 38.2146L40.4802 45.2858L41.3829 34.1524L33.2586 31.2938Z" fill="#A1A1A1"/>
</svg>
