<svg width="65" height="81" viewBox="0 0 65 81" fill="none" xmlns="http://www.w3.org/2000/svg">
<path fill-rule="evenodd" clip-rule="evenodd" d="M54.3841 73.8857L52.5787 76.7443C49.018 78.0482 40.2718 80.6861 33.7723 80.8065C27.2729 80.9268 16.1194 78.65 11.3551 77.4965L9.24883 74.9389C9.24883 72.5317 9.09838 67.3862 8.49658 66.0623C8.15826 65.318 7.2722 64.4215 6.27633 63.414C5.05785 62.1812 3.67498 60.7822 2.92989 59.292C2.84092 59.1141 2.75001 58.9329 2.65787 58.7493L2.65759 58.7487C1.34746 56.1378 -0.209787 53.0344 0.071324 51.7694C0.202465 51.1793 0.933723 50.532 1.72955 49.8276C2.75974 48.9157 3.89813 47.908 3.98302 46.8046C4.03037 46.1889 3.7498 44.1572 3.38057 41.4836C2.57677 35.6632 1.35285 26.8005 2.1776 22.8829C3.38121 17.1657 10.7533 9.79364 13.0101 7.53687L13.0101 7.53687C14.8155 5.73146 16.4704 5.3804 17.0722 5.43055L22.7894 14.1567L19.329 18.5198L27.002 22.8829L29.5597 24.9892L26.5507 17.1657L29.1083 13.1036L25.0461 1.81973C27.7543 0.415523 35.5476 -1.21938 45.0561 3.47469C56.9417 9.34228 59.6499 16.5639 61.0039 21.2279C62.358 25.8919 61.0039 36.5739 60.4021 40.1847C59.9207 43.0734 60.2015 45.1997 60.4021 45.9019C61.6057 47.5067 64.0731 50.8667 64.3138 51.4685C64.6147 52.2208 61.3048 58.2388 58.8976 60.7965C56.9718 62.8426 55.7883 64.6581 55.4372 65.31C55.0862 67.0653 54.3841 70.9068 54.3841 72.2308V73.8857ZM46.711 33.1136L54.0831 38.5298C53.4312 39.7334 51.9467 42.2911 51.2246 42.8929C50.3219 43.6451 48.366 45.1496 46.4101 45.4505C44.4543 45.7514 40.693 43.0433 39.6398 41.6893C38.7973 40.606 37.1825 38.931 36.4804 38.2289C37.6338 37.7775 40.4222 36.6341 42.348 35.6712C44.2737 34.7083 46.0591 33.5649 46.711 33.1136ZM10.001 38.6803L17.3731 33.264C18.0251 33.7154 19.8104 34.8588 21.7362 35.8217C23.662 36.7846 26.4503 37.928 27.6038 38.3794C26.9017 39.0815 25.2868 40.7565 24.4443 41.8397C23.3912 43.1938 19.6299 45.9019 17.674 45.601C15.7182 45.3001 13.7623 43.7956 12.8596 43.0433C12.1374 42.4415 10.653 39.8839 10.001 38.6803ZM37.684 54.3271C37.0321 54.979 35.4875 56.2528 34.5246 56.1325C34.0043 56.0674 33.5965 55.9462 33.2039 55.8295C32.6883 55.6762 32.1989 55.5307 31.5156 55.5307C31.0241 55.5307 30.5326 55.5808 30.0514 55.63C29.3541 55.7012 28.6783 55.7701 28.0552 55.6811C27.002 55.5307 26.4002 54.7784 26.4002 53.7253C26.4002 52.6721 27.9047 46.955 29.7101 44.6982C31.5156 42.4414 32.8696 42.7423 33.9228 44.6982C34.9759 46.6541 36.7813 50.4153 37.0822 51.6189C37.323 52.5818 37.5837 53.8256 37.684 54.3271Z" fill="#A1A1A1"/>
</svg>
