<svg width="51" height="84" viewBox="0 0 51 84" fill="none" xmlns="http://www.w3.org/2000/svg">
<path fill-rule="evenodd" clip-rule="evenodd" d="M22.7633 3.06902C22.7633 1.98577 21.1584 0.912554 20.356 0.511351L19.4533 0.210449C19.4032 1.063 19.2427 3.00884 19.002 3.97172C18.7812 4.85475 18.3175 5.41387 17.4327 6.48081C17.1114 6.86816 16.7347 7.32244 16.2939 7.88345C14.6389 9.98976 13.5858 11.3438 12.8335 12.8483C12.0812 14.3528 11.1785 17.5123 11.329 20.07C11.3954 21.1993 11.7259 23.0033 12.0612 24.8344C12.4854 27.1502 12.9175 29.5093 12.8335 30.6015C12.7131 32.1662 11.3791 34.8643 10.7272 36.0178C7.91877 40.5814 2.24175 49.9194 2.00103 50.762C1.70012 51.8151 -0.857541 65.0548 2.75328 71.8251C6.3641 78.5954 10.8776 81.3035 17.9488 82.6576C25.02 84.0116 31.1885 83.5603 37.8083 80.0999C44.4282 76.6395 47.2868 70.3206 49.0922 65.9575C50.8976 61.5944 50.4462 53.9214 48.3399 47.1511C46.7163 41.9323 42.4107 38.3226 39.6957 36.0465L39.6956 36.0464C38.8886 35.3698 38.2221 34.811 37.8083 34.3628C36.9859 33.4718 36.4757 31.4257 35.9221 29.2058L35.9221 29.2057C35.2605 26.5524 34.5369 23.6508 33.1444 22.1763C32.0762 21.0453 30.2732 19.7306 28.4588 18.4075C25.9288 16.5626 23.3766 14.7015 22.7633 13.2997C21.9664 11.4783 22.3754 7.33153 22.6217 4.8344C22.7009 4.03114 22.7633 3.39857 22.7633 3.06902ZM22.1615 65.807C21.2863 68.2868 18.4311 69.3523 17.161 69.8262L17.0462 69.8692C16.7453 70.0196 15.7222 70.2002 14.0371 69.7187C11.9308 69.1169 10.1254 66.7097 9.52362 64.9043C8.92181 63.0989 8.92181 60.6917 9.37317 59.3376C9.73425 58.2544 11.2287 56.78 11.9308 56.1782C11.8305 56.128 11.5397 56.0578 11.1786 56.1782C10.7272 56.3286 9.67407 57.0809 9.07226 57.8331C8.59082 58.4349 7.86866 59.9896 7.56775 60.6917C7.56775 60.14 7.7182 58.7358 8.32001 57.5322C9.07226 56.0277 12.3822 53.7709 16.2939 54.0718C19.7501 54.3377 21.0922 56.9526 21.6692 58.0769C21.7453 58.225 21.808 58.3473 21.8606 58.4349C22.3119 59.1872 23.0642 63.2493 22.1615 65.807ZM31.4974 69.1014C30.2273 68.6274 27.3721 67.5619 26.4969 65.0821C25.5942 62.5245 26.3465 58.4623 26.7978 57.71C26.8504 57.6224 26.9131 57.5002 26.9892 57.352C27.5662 56.2277 28.9083 53.6128 32.3645 53.347C36.2762 53.0461 39.5861 55.3028 40.3384 56.8073C40.9402 58.0109 41.0906 59.4151 41.0906 59.9668C40.7897 59.2647 40.0676 57.71 39.5861 57.1082C38.9843 56.356 37.9312 55.6037 37.4798 55.4533C37.1187 55.3329 36.8279 55.4031 36.7276 55.4533C37.4297 56.0551 38.9242 57.5295 39.2852 58.6127C39.7366 59.9668 39.7366 62.374 39.1348 64.1794C38.533 65.9848 36.7276 68.3921 34.6213 68.9939C32.9362 69.4753 31.9131 69.2948 31.6122 69.1443C31.5756 69.1306 31.5373 69.1162 31.4974 69.1014Z" fill="#A1A1A1"/>
</svg>
