<svg width="70" height="80" viewBox="0 0 70 80" fill="none" xmlns="http://www.w3.org/2000/svg">
<path d="M50.0922 62.6331C50.2125 63.7164 49.5405 65.8929 49.1895 66.8457C48.8384 66.5448 48.1362 65.7926 48.1362 65.1908C48.1362 64.4385 47.0831 64.2881 46.7822 64.4385C46.4812 64.589 46.3308 65.4917 46.0299 65.943C45.729 66.3944 44.3749 67.1467 43.4722 67.2971C42.7501 67.4175 41.9677 67.0463 41.6668 66.8457L39.2596 66.5448L37.4542 67.598C37.053 67.6983 36.1302 67.8387 35.6488 67.598C35.047 67.2971 34.2947 66.8457 33.392 66.5448C32.4893 66.2439 23.9136 65.1908 22.71 64.8899C21.5064 64.589 18.7983 62.1818 18.1965 61.58C17.5948 60.9782 17.4442 59.0223 17.2938 57.6682C17.1433 56.3142 18.4974 55.5619 18.7983 55.8628C19.0992 56.1637 21.9577 57.0664 23.9136 57.5178C25.8695 57.9691 33.8434 58.4205 36.2506 57.9691C38.1763 57.6081 39.5605 56.6151 40.0119 56.1637C38.3569 56.0634 34.5054 55.8628 32.3389 55.8628C29.6307 55.8628 24.8163 55.261 22.71 54.8097C20.6037 54.3583 18.1965 51.9511 17.4442 50.898C16.6919 49.8448 17.4442 46.3844 17.8956 44.8799C18.3469 43.3754 20.6037 43.9772 21.6568 44.1277C22.71 44.2781 33.5425 45.1808 36.2506 45.0304C38.9587 44.8799 43.1713 45.1808 43.1713 44.4286C43.1713 43.6763 42.5695 43.3754 41.6668 43.225C40.7641 43.0745 23.1613 42.4727 21.6568 42.3222C20.1523 42.1718 18.4974 39.915 18.1965 39.4637C17.8956 39.0123 17.4443 36.3042 17.7452 34.6493C18.0461 32.9943 19.4001 31.3393 21.356 30.7375C23.3119 30.1357 25.7191 29.9853 31.8876 29.9853C36.8223 29.9853 42.0681 30.888 44.0741 31.3393C44.4252 31.239 45.0069 30.9181 44.5254 30.4366C43.9236 29.8348 43.3218 29.233 41.2155 28.6312C39.1092 28.0294 26.4713 27.7285 25.2677 27.879C24.0641 28.0294 21.356 27.879 20.9046 27.2772C20.4532 26.6753 20.1524 25.3213 20.002 24.569C19.8515 23.8168 20.7542 18.8519 21.356 17.9492C21.9578 17.0465 23.9137 16.2942 24.9669 15.8429C26.02 15.3915 35.4984 16.2942 36.4011 16.2942C37.3038 16.2942 38.0561 15.6924 38.5074 15.2411C38.8685 14.88 38.6579 14.0876 38.5074 13.7366L38.8083 14.0375C39.1092 13.9873 39.8314 13.9472 40.3129 14.1879C40.7943 14.4286 43.021 15.6924 44.0741 16.2942H45.7291C45.9297 15.7927 46.3911 14.8198 46.6318 14.9402C46.9327 15.0906 49.3399 17.4978 50.2426 18.2501C51.1453 19.0023 51.5967 18.8519 52.3489 19.3033C53.1012 19.7546 54.9066 22.9141 55.2075 23.5159C55.5084 24.1177 57.1634 26.224 56.4111 27.2772C55.6588 28.3303 55.6588 30.4366 55.6588 31.3393C55.6588 32.242 56.712 33.7465 57.4643 35.2511C58.2165 36.7556 59.721 41.8709 59.4201 42.4727C59.1192 43.0745 56.712 43.6763 56.4111 45.0304C56.1704 46.1136 56.5114 48.2901 56.712 49.243C56.4111 49.2931 55.6889 49.6041 55.2075 50.4466C54.6057 51.4998 54.3048 52.7034 53.703 54.8097C53.2215 56.4947 50.7943 58.4205 49.6408 59.1727C49.7411 59.8749 49.9718 61.5499 50.0922 62.6331Z" fill="#A1A1A1"/>
<path d="M26.9226 10.5771C29.6909 11.1789 31.2857 13.0344 31.7371 13.887L31.8875 14.3383C29.4803 14.238 24.3048 14.0976 22.8605 14.3383C21.055 14.6392 20.4532 15.5419 19.2496 16.5951C18.046 17.6483 17.7451 19.0023 17.5947 20.0555C17.4442 21.1086 17.1433 22.1618 15.6388 24.2681C14.1343 26.3744 10.8244 26.0735 9.31987 25.9231C7.81536 25.7726 7.51446 25.0203 7.06311 24.2681C6.61176 23.5158 6.76221 22.6131 6.91266 22.1618C7.06311 21.7104 9.01897 18.7014 9.31987 17.7987C9.62077 16.896 10.373 14.6392 10.8244 14.1879C11.1855 13.8268 13.7833 11.6302 15.037 10.5771V9.223H18.7983V7.86895C19.049 7.8188 19.7612 7.86895 20.6037 8.47075C21.4462 9.07256 22.0581 9.9251 22.2587 10.2761C22.6599 10.1257 24.1543 9.97525 26.9226 10.5771Z" fill="#A1A1A1"/>
<path fill-rule="evenodd" clip-rule="evenodd" d="M24.5477 3.9572L35.0471 11.1788L42.7368 10.1257L59.8908 18.4005L59.0035 21.1086L64.9187 40.2159L62.109 49.2429L57.0811 55.8628L55.3065 65.7925L47.9126 71.8106L37.4131 73.4655L19.9634 69.1024C16.6608 65.291 10.0555 57.4876 10.0555 56.7655C10.0555 56.0433 8.97106 50.6471 8.42883 48.0393L11.9779 46.0835L14.0482 32.3924L4.58397 29.9852L0.443359 41.269L5.76701 49.2429L6.5064 52.5528L4.58397 58.7213L8.42883 62.0313L10.647 74.5187L23.3646 76.1736L25.1392 75.1205H34.4556L39.6313 78.4304L47.9126 79.634L51.018 73.4655L59.0035 65.7925H63.8835L68.9114 55.8628L66.8411 49.2429L69.6508 40.2159V37.6582L65.3623 29.3834L64.9187 24.2681L67.5805 15.9933L66.8411 14.6392L60.9259 13.7365L59.8908 10.7275L45.9901 7.26712L34.6034 0.496826L24.5477 3.9572ZM30.6107 4.8599L34.1598 7.26711L32.9768 3.95719L30.6107 4.8599ZM61.5174 19.0023L63.292 23.5158L65.0665 17.6482L64.7708 16.5951L61.5174 19.0023ZM60.4822 58.4204L62.5526 63.3853L58.5598 61.8808L59.2992 59.4736L60.4822 58.4204ZM19.0761 73.0142L15.2312 68.6511L14.3439 71.961L19.0761 73.0142ZM9.46404 44.278L6.35858 44.7294C5.37272 43.4756 3.48973 40.9681 3.84464 40.9681H9.75978L9.46404 44.278Z" fill="#A1A1A1"/>
</svg>
