<svg width="41" height="80" viewBox="0 0 41 80" fill="none" xmlns="http://www.w3.org/2000/svg">
<path fill-rule="evenodd" clip-rule="evenodd" d="M0.815383 79.2919C7.53553 76.985 22.4803 70.3852 28.4984 62.4414C35.8131 52.7859 40.5673 46.4023 39.9944 41.0774C39.0711 34.5578 35.4492 19.5328 28.3479 11.589C20.5641 2.88164 19.9529 2.50382 18.703 1.7312C18.5276 1.62273 18.3395 1.50647 18.1172 1.3583C16.7019 0.414759 11.6807 1.41285 8.9246 1.9607C8.16494 2.1117 7.57735 2.2285 7.28477 2.26101C6.83342 2.31116 6.16475 2.31116 5.44593 2.31116C4.00829 2.31116 2.37004 2.31116 1.86854 2.71236C1.11629 3.31416 0.364031 10.0845 0.514482 11.2881L0.514485 11.2881C0.664949 12.4918 1.86855 22.1206 7.28477 30.6962C12.1037 38.3262 11.5633 48.219 11.3855 51.4738C11.3634 51.8772 11.347 52.1787 11.347 52.3612C11.347 54.0161 9.69202 64.5477 5.78029 71.4684C2.65091 77.005 1.16645 78.991 0.815383 79.2919ZM12.0993 68.6099C11.8485 68.7603 11.2568 68.9408 10.8957 68.4594C10.5346 67.978 10.9458 67.0552 11.1966 66.654C12.4002 63.645 14.8976 56.8747 15.2587 53.8657C15.71 50.1044 15.71 42.4314 15.2587 39.8737C14.8976 37.8276 14.6067 37.5167 14.5064 37.617C15.5596 36.5137 17.4553 33.3743 16.6128 29.6431C15.5596 24.9791 10.8956 23.3241 9.99291 23.3241H7.43525L5.93074 19.5629C7.73615 18.8608 12.2798 18.5699 16.011 23.0232C20.6749 28.5899 20.9758 33.4044 20.6749 38.2188C20.4851 41.2553 20.1158 43.3941 19.8689 44.8238C19.7244 45.661 19.6218 46.2551 19.6218 46.644C19.6218 47.6972 20.374 49.2017 21.4272 49.3521C22.2697 49.4725 23.5836 49.4023 24.1353 49.3521C23.4332 49.0512 21.9688 48.2388 21.7281 47.3963C21.572 46.8501 22.023 44.2399 22.4934 41.5177C22.9299 38.9913 23.383 36.3685 23.383 35.2098C23.383 32.8025 22.7812 25.1295 20.0731 21.3683C17.365 17.607 14.0551 14.8989 9.99291 14.1466C6.74317 13.5448 5.02803 13.4947 4.57668 13.5448L4.12533 9.3322C6.33194 9.2319 12.2196 10.0544 18.1173 14.1466C25.4894 19.262 27.4452 30.3953 27.7461 33.5548C27.9053 35.2261 27.8119 37.4026 27.7331 39.238C27.6629 40.8723 27.6044 42.2362 27.7461 42.7323C27.9055 43.2901 28.3603 44.0168 28.7529 44.644C29.1016 45.201 29.4011 45.6795 29.4011 45.8918C29.4011 46.3431 27.2948 50.2548 25.4894 51.9098C24.4536 52.8593 24.2596 53.8582 24.0836 54.7647C23.9529 55.4382 23.832 56.0607 23.383 56.5738C23.0465 56.9584 22.5564 57.7884 21.9569 58.8037C20.6801 60.9661 18.9069 63.969 17.0641 65.2999C14.8976 66.8646 12.8515 68.1585 12.0993 68.6099Z" fill="#A1A1A1"/>
</svg>
