<svg width="84" height="80" viewBox="0 0 84 80" fill="none" xmlns="http://www.w3.org/2000/svg">
<path fill-rule="evenodd" clip-rule="evenodd" d="M44.3203 79.5888C51.0404 77.2819 65.9852 70.6821 72.0032 62.7383C79.318 53.0828 84.0721 46.6992 83.4993 41.3742C82.576 34.8547 78.9541 19.8297 71.8528 11.8858C64.069 3.17851 63.4578 2.8007 62.2079 2.02807C62.0324 1.9196 61.8444 1.80335 61.6221 1.65518C60.2068 0.711634 55.1856 1.70972 52.4295 2.25757C51.6698 2.40858 51.0822 2.52537 50.7897 2.55788C50.3383 2.60803 49.6696 2.60803 48.9508 2.60803C47.5132 2.60803 45.8749 2.60803 45.3734 3.00924C44.6212 3.61104 43.8689 10.3813 44.0194 11.5849L44.0194 11.585C44.1698 12.7887 45.3734 22.4175 50.7897 30.9931C55.6086 38.6231 55.0682 48.5159 54.8904 51.7707C54.8683 52.1741 54.8519 52.4755 54.8519 52.658C54.8519 54.313 53.1969 64.8446 49.2852 71.7653C46.1558 77.3019 44.6713 79.2879 44.3203 79.5888ZM55.6042 68.9067C55.3534 69.0572 54.7616 69.2377 54.4006 68.7563C54.0395 68.2748 54.4507 67.3521 54.7015 66.9509C55.9051 63.9419 58.4025 57.1716 58.7636 54.1625C59.2149 50.4013 59.2149 42.7283 58.7636 40.1706C58.4025 38.1245 58.1116 37.8135 58.0113 37.9138C59.0645 36.8105 60.9602 33.6711 60.1176 29.9399C59.0645 25.276 54.4005 23.621 53.4978 23.621H50.9401L49.4356 19.8597C51.241 19.1576 55.7847 18.8668 59.5158 23.3201C64.1798 28.8868 64.4807 33.7012 64.1798 38.5157C63.99 41.5522 63.6207 43.6909 63.3738 45.1207C63.2292 45.9579 63.1267 46.552 63.1267 46.9409C63.1267 47.9941 63.8789 49.4986 64.9321 49.649C65.7746 49.7694 67.0885 49.6992 67.6402 49.649C66.9381 49.3481 65.4737 48.5357 65.233 47.6932C65.0769 47.1469 65.5279 44.5367 65.9982 41.8146C66.4348 39.2882 66.8879 36.6654 66.8879 35.5066C66.8879 33.0994 66.2861 25.4264 63.578 21.6651C60.8699 17.9039 57.56 15.1958 53.4978 14.4435C50.2481 13.8417 48.5329 13.7915 48.0816 13.8417L47.6302 9.62907C49.8368 9.52877 55.7245 10.3512 61.6221 14.4435C68.9942 19.5588 70.9501 30.6922 71.251 33.8517C71.4102 35.523 71.3168 37.6994 71.238 39.5349C71.1678 41.1692 71.1093 42.5331 71.251 43.0292C71.4104 43.587 71.8652 44.3137 72.2578 44.9409C72.6064 45.4978 72.906 45.9764 72.906 46.1886C72.906 46.64 70.7997 50.5517 68.9942 52.2067C67.9585 53.1561 67.7645 54.1551 67.5885 55.0615C67.4578 55.7351 67.3369 56.3576 66.8879 56.8707C66.5514 57.2552 66.0613 58.0853 65.4618 59.1006C64.185 61.263 62.4118 64.2659 60.569 65.5968C58.4025 67.1615 56.3564 68.4554 55.6042 68.9067Z" fill="#A1A1A1"/>
<path d="M31.1432 46.0378C30.5414 45.436 21.9657 34.9545 17.7531 29.7891L17.3018 40.772C17.6027 41.3236 18.4452 42.6376 19.4081 43.4801C20.6117 44.5333 26.7802 46.9405 28.2847 48.7459C29.7892 50.5513 30.5414 52.5072 30.5414 54.3126C30.5414 56.118 29.4883 57.3216 27.6829 57.6225C26.2385 57.8632 25.4763 55.7168 25.2757 54.6135C25.1252 54.4129 24.7641 54.2223 24.5234 55.0648C24.2225 56.118 24.2225 59.2774 26.7802 60.0297C29.3378 60.782 32.0459 59.7288 33.4 55.0648C34.7541 50.4008 31.8955 46.79 31.1432 46.0378Z" fill="#A1A1A1"/>
<path fill-rule="evenodd" clip-rule="evenodd" d="M36.7101 79.739C40.6218 72.6678 47.358 59.729 42.5776 46.6398C39.4313 38.025 36.9564 32.6179 35.2272 28.84C33.4835 25.0304 32.4981 22.8773 32.347 20.7622C32.0461 16.5496 32.1965 9.62886 33.5506 6.61984C34.6338 4.21263 35.1052 2.50752 35.2055 1.95586L25.8776 0C25.4764 0.0501503 24.4633 0.180541 23.6208 0.300902C22.7783 0.421263 22.0661 0.952856 21.8154 1.20361C18.7562 4.66398 11.6148 13.7211 7.52255 22.2667C3.43028 30.8124 0.802405 42.0761 0 46.6398C3.86157 52.8584 13.5105 66.6799 21.2136 72.2165C28.9167 77.7531 34.7542 79.5384 36.7101 79.739ZM28.2848 13.6911L29.0371 10.0803C28.9402 10.0803 28.8543 10.078 28.7753 10.0758C27.9865 10.0545 27.8853 10.0517 24.3844 12.568C20.6249 15.2701 19.9846 16.5044 17.9503 20.4259C17.3794 21.5263 16.6988 22.8382 15.8087 24.4536C12.559 30.3513 13.1507 40.7525 13.8528 45.2159C13.4015 45.8177 12.5288 47.2921 12.6492 48.3753C12.7787 49.5409 16.5872 53.8281 17.261 54.5191C17.205 54.9203 21.5988 64.8076 25.5879 68.0844C28.958 70.8527 34.4144 71.946 36.7213 72.1466C36.8216 72.3973 37.6084 70.2092 38.2146 68.0844C39.2677 64.3931 39.8167 62.0463 39.2677 54.5438C38.8164 48.3753 36.1584 41.7251 34.3029 37.1615C34.0951 37.0427 33.7468 36.852 33.3125 36.6142C32.2793 36.0483 30.7596 35.216 29.4884 34.4534C27.683 33.3701 22.2668 26.9308 20.6118 23.32C20.9629 22.2167 22.3871 19.2879 23.4704 17.6028C24.5536 15.9178 27.0311 14.3431 28.2848 13.6911Z" fill="#A1A1A1"/>
</svg>
