<svg width="57" height="80" viewBox="0 0 57 80" fill="none" xmlns="http://www.w3.org/2000/svg">
<path fill-rule="evenodd" clip-rule="evenodd" d="M39.1971 67.4489C35.1349 73.9684 23.6104 85.0517 10.0096 77.2282C-3.59116 69.4048 -0.371513 54.811 2.93841 48.4921L5.79692 43.9785C5.69662 45.132 5.67656 47.469 6.39873 47.5894C7.30143 47.7398 10.9123 40.6686 11.5141 39.3146C11.9955 38.2313 13.6204 36.5563 14.3726 35.8542C14.3225 36.7569 14.4629 38.7128 15.4258 39.3146C16.6294 40.0668 17.3816 39.6155 18.7357 37.0578C19.3077 35.9774 19.6649 35.0312 20.0228 34.0831C20.5122 32.7869 21.0029 31.4872 22.0456 29.8362C23.49 27.5493 25.3555 25.9746 26.1078 25.4731C25.7066 26.777 25.0546 29.4751 25.6564 29.8362C26.4087 30.2875 27.0105 29.9866 28.0637 28.9335C28.6031 28.394 31.669 23.4728 34.6933 18.6183C37.5732 13.9957 40.4154 9.4335 41.0024 8.77303C41.9653 7.68978 43.4097 6.61657 44.0115 6.21536C43.4598 7.77002 42.6875 10.9094 44.0115 11.0298C45.6664 11.1802 50.4809 5.76401 50.9322 4.86131C51.2933 4.13914 54.4929 1.35078 56.0475 0.046875C54.3424 3.20634 51.2331 9.76601 52.4367 10.7289C53.6403 11.6918 55.0445 10.6286 55.5962 9.97664C55.7466 10.7289 55.6865 12.8352 54.2421 15.2424C52.4367 18.2514 44.6133 31.6416 44.3124 32.5443C44.0115 33.447 43.2592 35.7038 44.9142 35.5533C46.2381 35.4329 47.7727 34.1992 48.3745 33.5974C47.522 35.9545 45.4257 41.3306 43.861 43.9785C43.1567 45.1705 42.2767 46.4991 41.4319 47.7746C39.9309 50.0408 38.541 52.1392 38.4448 53.0056C38.2943 54.3597 38.5952 55.4128 40.2502 54.811C41.5742 54.3296 42.2061 53.6074 42.3565 53.3065C42.1058 54.8612 41.1229 58.5121 39.1971 60.6786C36.7898 63.3867 35.1349 66.3957 35.2853 67.148C35.2893 67.1679 35.2933 67.188 35.2973 67.2083C35.445 67.9546 35.6379 68.9295 37.5421 68.0507C39.1068 67.3285 39.2974 67.3486 39.1971 67.4489ZM20.2403 47.8903C19.2373 47.5894 16.6595 47.3788 14.3727 48.9435C11.5141 50.8993 7.75284 54.2092 7.30149 55.4129C6.85013 56.6165 5.94743 60.6786 5.94743 62.484C5.94743 62.8888 5.91718 63.3314 5.8855 63.7949C5.77589 65.3985 5.64921 67.2519 6.69968 68.6525C8.05374 70.4579 12.8682 73.6174 14.0718 73.6174C14.3559 73.6174 14.6652 73.609 14.9917 73.6002C16.0484 73.5715 17.2855 73.538 18.4348 73.7679C18.8647 73.8538 19.2946 73.9889 19.7244 74.124C20.7991 74.4618 21.8737 74.7995 22.9484 74.3697C24.4529 73.7679 30.0196 68.5021 30.7718 66.5462C30.8853 66.2511 31.0126 65.9422 31.1452 65.6202C31.8916 63.8082 32.81 61.5786 32.4268 59.0237C31.9754 56.0147 29.5682 51.802 28.6655 50.8993C27.7628 49.9966 26.1078 48.4921 23.7006 48.0408C21.7749 47.6797 20.5913 47.79 20.2403 47.8903Z" fill="#A1A1A1"/>
</svg>
