<svg width="60" height="77" viewBox="0 0 60 77" fill="none" xmlns="http://www.w3.org/2000/svg">
<path fill-rule="evenodd" clip-rule="evenodd" d="M33.8178 43.6852L44.3494 26.5338L42.0926 6.67423L29.1538 0.806641L19.6754 9.08144L19.3745 23.3743L22.534 28.4896L23.1358 36.9149L33.8178 43.6852ZM33.5169 40.3752L42.0926 26.6842L39.9863 12.0905L31.7115 20.0644L32.1629 31.95L24.6403 26.6842V28.3392L32.7647 37.0653L33.5169 40.3752Z" fill="#A1A1A1"/>
<path fill-rule="evenodd" clip-rule="evenodd" d="M9.74556 23.8257L16.5159 30.7464V36.0122L21.7816 41.4284V45.1897L23.7375 49.5528L19.8258 58.1285L15.0113 56.0222L9.74556 57.0753L0.116699 44.1366L9.74556 23.8257ZM10.3472 29.3924C11.3 30.2449 13.2057 32.0102 13.2057 32.2509C13.2057 32.4917 13.8075 35.5609 14.1084 37.0654L19.6751 43.9861L18.0201 46.6942L20.8787 49.5528L20.4274 50.7564L17.5688 50.305L14.1084 53.4645L10.3472 48.3492V40.5257C9.29399 41.9299 7.18768 44.5879 7.18768 43.9861C7.18768 43.3843 6.98708 39.1215 6.88678 37.0654L10.3472 29.3924Z" fill="#A1A1A1"/>
<path fill-rule="evenodd" clip-rule="evenodd" d="M31.2011 52.2683C32.449 52.9301 33.7405 53.615 34.1188 53.615C34.7206 53.615 39.6855 51.9099 42.0927 51.0573L52.9251 55.1195L43.7476 70.7664L28.5521 76.634H24.9413L21.6313 64.5979L28.5521 51.0573C28.7765 50.9825 29.9675 51.6141 31.2011 52.2683ZM32.6144 61.2879L40.137 56.4735L48.8632 57.6771L41.9424 68.8105L29.0036 74.0763L28.4018 73.0231L32.6144 61.2879Z" fill="#A1A1A1"/>
<path fill-rule="evenodd" clip-rule="evenodd" d="M35.7734 48.1988L52.4735 31.0474L59.6951 38.8708L56.6861 48.1988L46.9068 45.3402L35.7734 48.1988ZM41.641 43.8357L51.5708 35.4105L54.4293 38.1186V39.0213L51.5708 41.579L41.641 43.8357Z" fill="#A1A1A1"/>
</svg>
